<mxfile type="device" compressed="false">
    <diagram id="Structure" name="Structure">
      <mxGraphModel dx="1360" dy="1864" grid="1" gridSize="10" guides="1" tooltips="1" connect="1" arrows="1" fold="1" page="1" pageScale="1" pageWidth="827" pageHeight="1169" math="0" shadow="1">
        <root>
          <mxCell id="0" />   
          <mxCell id="1" parent="0" />
        <object id="140282356481520" label="DetermSumUnit">
      <mxCell style="shape=stencil(tZXdboQgEIWfhttGISa7l41t34PqWMmyYID96dsXRVNBZXeNJsaEGfw4mZmDiOS6pg0gnNSIfCCM0ySxb7u+BWuqGyiMC1bsDqULa6PkCW6sND2AiRoUM22WfKLk3e5pH5IXUghLYFJoLzPKWxhlwn6b3B2sP/vXWzWWfwYDqlfoogh/PY99y/YBpzvp9bGD+s31bgf2Fad7NW4zcLoeS3IbWRpukn/T4vSj5EWUs2KAc9ZoeDDyoRlDs85qWjiZ5JVUEJGk6RUi5asY5871kU3ja8HK/78ecLw3DW03ThJD+iyvo1JlwZRlMfaA4EwsIw5PIXwVqT+SA/EVFYdXEF1vF+o0FH5NZx64RoE2dm626t3smMdrNrFKUDXPKkffKcfoCStL2n02MVMXdX/VLvAH);whiteSpace=wrap;html=1;labelPosition=center;verticalLabelPosition=bottom;align=center;verticalAlign=top;" vertex="1" parent="1">
          <mxGeometry x="469" y="835" width="30" height="30" as="geometry" />
      </mxCell>
    </object><object id="140282356479312" label="DecompProductUnit">
      <mxCell style="shape=stencil(tZRvb4MgEMY/DW8bhDTr24Vu34PqWUkpEKB/9u2LopnY6tymiSG55+THkzsORJmruAFEcIXoHhGSYRzWEN8GMXcGch/FUtyhiLLzVp/gJgrfAoSqwApfZ+kHwu/hn/qjLNdKBYLQyiWZXj7AuFBhL75HWHv2VxKZwD+DB9s6jCoin/Oxm+064Gwlvym2c7+43+XAqeNsrcYtBs7+jqUsKGOXm7IDz09Hqy+qeGkGpBTGwQ9XfjiMw2F96WnkZMpKbWHCUimkjGM9UUTD64F/SnTp/rMQ7H8/D2SqN93us772KjIoCdnOQUiheohdinibhUhd7P7vgvzGRdPCkSp39R3r/FODGzW+9I3wAA==);whiteSpace=wrap;html=1;labelPosition=center;verticalLabelPosition=bottom;align=center;verticalAlign=top;" vertex="1" parent="1">
          <mxGeometry x="258" y="569" width="30" height="30" as="geometry" />
      </mxCell>
    </object><object id="140282356355520" label="DetermSumUnit">
      <mxCell style="shape=stencil(tZXdboQgEIWfhttGISa7l41t34PqWMmyYID96dsXRVNBZXeNJsaEGfw4mZmDiOS6pg0gnNSIfCCM0ySxb7u+BWuqGyiMC1bsDqULa6PkCW6sND2AiRoUM22WfKLk3e5pH5IXUghLYFJoLzPKWxhlwn6b3B2sP/vXWzWWfwYDqlfoogh/PY99y/YBpzvp9bGD+s31bgf2Fad7NW4zcLoeS3IbWRpukn/T4vSj5EWUs2KAc9ZoeDDyoRlDs85qWjiZ5JVUEJGk6RUi5asY5871kU3ja8HK/78ecLw3DW03ThJD+iyvo1JlwZRlMfaA4EwsIw5PIXwVqT+SA/EVFYdXEF1vF+o0FH5NZx64RoE2dm626t3smMdrNrFKUDXPKkffKcfoCStL2n02MVMXdX/VLvAH);whiteSpace=wrap;html=1;labelPosition=center;verticalLabelPosition=bottom;align=center;verticalAlign=top;" vertex="1" parent="1">
          <mxGeometry x="485" y="824" width="30" height="30" as="geometry" />
      </mxCell>
    </object><object id="140282356355904" label="U([6.802,35.185))">
      <mxCell style="rounded=1;whiteSpace=wrap;html=1;labelPosition=center;verticalLabelPosition=top;align=center;verticalAlign=bottom;" vertex="1" parent="1">
          <mxGeometry x="273" y="557" width="30" height="30" as="geometry" />
      </mxCell>
    </object><object id="140282356355856" label="U([35.185,542.2])">
      <mxCell style="rounded=1;whiteSpace=wrap;html=1;labelPosition=center;verticalLabelPosition=top;align=center;verticalAlign=bottom;" vertex="1" parent="1">
          <mxGeometry x="289" y="545" width="30" height="30" as="geometry" />
      </mxCell>
    </object><object id="140282356356912" label="DetermSumUnit">
      <mxCell style="shape=stencil(tZXdboQgEIWfhttGISa7l41t34PqWMmyYID96dsXRVNBZXeNJsaEGfw4mZmDiOS6pg0gnNSIfCCM0ySxb7u+BWuqGyiMC1bsDqULa6PkCW6sND2AiRoUM22WfKLk3e5pH5IXUghLYFJoLzPKWxhlwn6b3B2sP/vXWzWWfwYDqlfoogh/PY99y/YBpzvp9bGD+s31bgf2Fad7NW4zcLoeS3IbWRpukn/T4vSj5EWUs2KAc9ZoeDDyoRlDs85qWjiZ5JVUEJGk6RUi5asY5871kU3ja8HK/78ecLw3DW03ThJD+iyvo1JlwZRlMfaA4EwsIw5PIXwVqT+SA/EVFYdXEF1vF+o0FH5NZx64RoE2dm626t3smMdrNrFKUDXPKkffKcfoCStL2n02MVMXdX/VLvAH);whiteSpace=wrap;html=1;labelPosition=center;verticalLabelPosition=bottom;align=center;verticalAlign=top;" vertex="1" parent="1">
          <mxGeometry x="501" y="813" width="30" height="30" as="geometry" />
      </mxCell>
    </object><object id="140282356356768" label="U([0.002252,0.035))">
      <mxCell style="rounded=1;whiteSpace=wrap;html=1;labelPosition=center;verticalLabelPosition=top;align=center;verticalAlign=bottom;" vertex="1" parent="1">
          <mxGeometry x="305" y="534" width="30" height="30" as="geometry" />
      </mxCell>
    </object><object id="140282356357008" label="U([0.035,0.1354])">
      <mxCell style="rounded=1;whiteSpace=wrap;html=1;labelPosition=center;verticalLabelPosition=top;align=center;verticalAlign=bottom;" vertex="1" parent="1">
          <mxGeometry x="321" y="524" width="30" height="30" as="geometry" />
      </mxCell>
    </object><object id="140282356357104" label="DetermSumUnit">
      <mxCell style="shape=stencil(tZXdboQgEIWfhttGISa7l41t34PqWMmyYID96dsXRVNBZXeNJsaEGfw4mZmDiOS6pg0gnNSIfCCM0ySxb7u+BWuqGyiMC1bsDqULa6PkCW6sND2AiRoUM22WfKLk3e5pH5IXUghLYFJoLzPKWxhlwn6b3B2sP/vXWzWWfwYDqlfoogh/PY99y/YBpzvp9bGD+s31bgf2Fad7NW4zcLoeS3IbWRpukn/T4vSj5EWUs2KAc9ZoeDDyoRlDs85qWjiZ5JVUEJGk6RUi5asY5871kU3ja8HK/78ecLw3DW03ThJD+iyvo1JlwZRlMfaA4EwsIw5PIXwVqT+SA/EVFYdXEF1vF+o0FH5NZx64RoE2dm626t3smMdrNrFKUDXPKkffKcfoCStL2n02MVMXdX/VLvAH);whiteSpace=wrap;html=1;labelPosition=center;verticalLabelPosition=bottom;align=center;verticalAlign=top;" vertex="1" parent="1">
          <mxGeometry x="526" y="799" width="30" height="30" as="geometry" />
      </mxCell>
    </object><object id="140282356357440" label="U([0.016120000000000002,0.05279])">
      <mxCell style="rounded=1;whiteSpace=wrap;html=1;labelPosition=center;verticalLabelPosition=top;align=center;verticalAlign=bottom;" vertex="1" parent="1">
          <mxGeometry x="338" y="514" width="30" height="30" as="geometry" />
      </mxCell>
    </object><object id="140282356356240" label="U([0.0,0.0073054999999999995))">
      <mxCell style="rounded=1;whiteSpace=wrap;html=1;labelPosition=center;verticalLabelPosition=top;align=center;verticalAlign=bottom;" vertex="1" parent="1">
          <mxGeometry x="355" y="505" width="30" height="30" as="geometry" />
      </mxCell>
    </object><object id="140282356357344" label="U([0.0073054999999999995,0.016120000000000002))">
      <mxCell style="rounded=1;whiteSpace=wrap;html=1;labelPosition=center;verticalLabelPosition=top;align=center;verticalAlign=bottom;" vertex="1" parent="1">
          <mxGeometry x="372" y="496" width="30" height="30" as="geometry" />
      </mxCell>
    </object><object id="140282356358976" label="DetermSumUnit">
      <mxCell style="shape=stencil(tZXdboQgEIWfhttGISa7l41t34PqWMmyYID96dsXRVNBZXeNJsaEGfw4mZmDiOS6pg0gnNSIfCCM0ySxb7u+BWuqGyiMC1bsDqULa6PkCW6sND2AiRoUM22WfKLk3e5pH5IXUghLYFJoLzPKWxhlwn6b3B2sP/vXWzWWfwYDqlfoogh/PY99y/YBpzvp9bGD+s31bgf2Fad7NW4zcLoeS3IbWRpukn/T4vSj5EWUs2KAc9ZoeDDyoRlDs85qWjiZ5JVUEJGk6RUi5asY5871kU3ja8HK/78ecLw3DW03ThJD+iyvo1JlwZRlMfaA4EwsIw5PIXwVqT+SA/EVFYdXEF1vF+o0FH5NZx64RoE2dm626t3smMdrNrFKUDXPKkffKcfoCStL2n02MVMXdX/VLvAH);whiteSpace=wrap;html=1;labelPosition=center;verticalLabelPosition=bottom;align=center;verticalAlign=top;" vertex="1" parent="1">
          <mxGeometry x="544" y="791" width="30" height="30" as="geometry" />
      </mxCell>
    </object><object id="140282356358688" label="U([0.0,0.0476))">
      <mxCell style="rounded=1;whiteSpace=wrap;html=1;labelPosition=center;verticalLabelPosition=top;align=center;verticalAlign=bottom;" vertex="1" parent="1">
          <mxGeometry x="389" y="487" width="30" height="30" as="geometry" />
      </mxCell>
    </object><object id="140282356358640" label="U([0.0476,0.396])">
      <mxCell style="rounded=1;whiteSpace=wrap;html=1;labelPosition=center;verticalLabelPosition=top;align=center;verticalAlign=bottom;" vertex="1" parent="1">
          <mxGeometry x="407" y="479" width="30" height="30" as="geometry" />
      </mxCell>
    </object><object id="140282356358928" label="DetermSumUnit">
      <mxCell style="shape=stencil(tZXdboQgEIWfhttGISa7l41t34PqWMmyYID96dsXRVNBZXeNJsaEGfw4mZmDiOS6pg0gnNSIfCCM0ySxb7u+BWuqGyiMC1bsDqULa6PkCW6sND2AiRoUM22WfKLk3e5pH5IXUghLYFJoLzPKWxhlwn6b3B2sP/vXWzWWfwYDqlfoogh/PY99y/YBpzvp9bGD+s31bgf2Fad7NW4zcLoeS3IbWRpukn/T4vSj5EWUs2KAc9ZoeDDyoRlDs85qWjiZ5JVUEJGk6RUi5asY5871kU3ja8HK/78ecLw3DW03ThJD+iyvo1JlwZRlMfaA4EwsIw5PIXwVqT+SA/EVFYdXEF1vF+o0FH5NZx64RoE2dm626t3smMdrNrFKUDXPKkffKcfoCStL2n02MVMXdX/VLvAH);whiteSpace=wrap;html=1;labelPosition=center;verticalLabelPosition=bottom;align=center;verticalAlign=top;" vertex="1" parent="1">
          <mxGeometry x="562" y="783" width="30" height="30" as="geometry" />
      </mxCell>
    </object><object id="140282355999696" label="U([0.0008948,0.0048675))">
      <mxCell style="rounded=1;whiteSpace=wrap;html=1;labelPosition=center;verticalLabelPosition=top;align=center;verticalAlign=bottom;" vertex="1" parent="1">
          <mxGeometry x="425" y="472" width="30" height="30" as="geometry" />
      </mxCell>
    </object><object id="140282355999840" label="U([0.0048675,0.02984])">
      <mxCell style="rounded=1;whiteSpace=wrap;html=1;labelPosition=center;verticalLabelPosition=top;align=center;verticalAlign=bottom;" vertex="1" parent="1">
          <mxGeometry x="443" y="465" width="30" height="30" as="geometry" />
      </mxCell>
    </object><object id="140282356000848" label="Nominal('friendly', 'malignant')">
      <mxCell style="rounded=1;whiteSpace=wrap;html=1;labelPosition=center;verticalLabelPosition=top;align=center;verticalAlign=bottom;" vertex="1" parent="1">
          <mxGeometry x="9" y="993" width="30" height="30" as="geometry" />
      </mxCell>
    </object><object id="140282356001712" label="DetermSumUnit">
      <mxCell style="shape=stencil(tZXdboQgEIWfhttGISa7l41t34PqWMmyYID96dsXRVNBZXeNJsaEGfw4mZmDiOS6pg0gnNSIfCCM0ySxb7u+BWuqGyiMC1bsDqULa6PkCW6sND2AiRoUM22WfKLk3e5pH5IXUghLYFJoLzPKWxhlwn6b3B2sP/vXWzWWfwYDqlfoogh/PY99y/YBpzvp9bGD+s31bgf2Fad7NW4zcLoeS3IbWRpukn/T4vSj5EWUs2KAc9ZoeDDyoRlDs85qWjiZ5JVUEJGk6RUi5asY5871kU3ja8HK/78ecLw3DW03ThJD+iyvo1JlwZRlMfaA4EwsIw5PIXwVqT+SA/EVFYdXEF1vF+o0FH5NZx64RoE2dm626t3smMdrNrFKUDXPKkffKcfoCStL2n02MVMXdX/VLvAH);whiteSpace=wrap;html=1;labelPosition=center;verticalLabelPosition=bottom;align=center;verticalAlign=top;" vertex="1" parent="1">
          <mxGeometry x="589" y="774" width="30" height="30" as="geometry" />
      </mxCell>
    </object><object id="140282356001856" label="U([718.2,2501.0])">
      <mxCell style="rounded=1;whiteSpace=wrap;html=1;labelPosition=center;verticalLabelPosition=top;align=center;verticalAlign=bottom;" vertex="1" parent="1">
          <mxGeometry x="461" y="458" width="30" height="30" as="geometry" />
      </mxCell>
    </object><object id="140282356001808" label="U([143.5,388.05))">
      <mxCell style="rounded=1;whiteSpace=wrap;html=1;labelPosition=center;verticalLabelPosition=top;align=center;verticalAlign=bottom;" vertex="1" parent="1">
          <mxGeometry x="480" y="452" width="30" height="30" as="geometry" />
      </mxCell>
    </object><object id="140282356001952" label="U([388.05,718.2))">
      <mxCell style="rounded=1;whiteSpace=wrap;html=1;labelPosition=center;verticalLabelPosition=top;align=center;verticalAlign=bottom;" vertex="1" parent="1">
          <mxGeometry x="498" y="447" width="30" height="30" as="geometry" />
      </mxCell>
    </object><object id="140282356002480" label="DetermSumUnit">
      <mxCell style="shape=stencil(tZXdboQgEIWfhttGISa7l41t34PqWMmyYID96dsXRVNBZXeNJsaEGfw4mZmDiOS6pg0gnNSIfCCM0ySxb7u+BWuqGyiMC1bsDqULa6PkCW6sND2AiRoUM22WfKLk3e5pH5IXUghLYFJoLzPKWxhlwn6b3B2sP/vXWzWWfwYDqlfoogh/PY99y/YBpzvp9bGD+s31bgf2Fad7NW4zcLoeS3IbWRpukn/T4vSj5EWUs2KAc9ZoeDDyoRlDs85qWjiZ5JVUEJGk6RUi5asY5871kU3ja8HK/78ecLw3DW03ThJD+iyvo1JlwZRlMfaA4EwsIw5PIXwVqT+SA/EVFYdXEF1vF+o0FH5NZx64RoE2dm626t3smMdrNrFKUDXPKkffKcfoCStL2n02MVMXdX/VLvAH);whiteSpace=wrap;html=1;labelPosition=center;verticalLabelPosition=bottom;align=center;verticalAlign=top;" vertex="1" parent="1">
          <mxGeometry x="608" y="770" width="30" height="30" as="geometry" />
      </mxCell>
    </object><object id="140282356027840" label="U([0.01938,0.13505))">
      <mxCell style="rounded=1;whiteSpace=wrap;html=1;labelPosition=center;verticalLabelPosition=top;align=center;verticalAlign=bottom;" vertex="1" parent="1">
          <mxGeometry x="517" y="442" width="30" height="30" as="geometry" />
      </mxCell>
    </object><object id="140282356027792" label="U([0.13505,0.3454])">
      <mxCell style="rounded=1;whiteSpace=wrap;html=1;labelPosition=center;verticalLabelPosition=top;align=center;verticalAlign=bottom;" vertex="1" parent="1">
          <mxGeometry x="536" y="437" width="30" height="30" as="geometry" />
      </mxCell>
    </object><object id="140282356029088" label="DetermSumUnit">
      <mxCell style="shape=stencil(tZXdboQgEIWfhttGISa7l41t34PqWMmyYID96dsXRVNBZXeNJsaEGfw4mZmDiOS6pg0gnNSIfCCM0ySxb7u+BWuqGyiMC1bsDqULa6PkCW6sND2AiRoUM22WfKLk3e5pH5IXUghLYFJoLzPKWxhlwn6b3B2sP/vXWzWWfwYDqlfoogh/PY99y/YBpzvp9bGD+s31bgf2Fad7NW4zcLoeS3IbWRpukn/T4vSj5EWUs2KAc9ZoeDDyoRlDs85qWjiZ5JVUEJGk6RUi5asY5871kU3ja8HK/78ecLw3DW03ThJD+iyvo1JlwZRlMfaA4EwsIw5PIXwVqT+SA/EVFYdXEF1vF+o0FH5NZx64RoE2dm626t3smMdrNrFKUDXPKkffKcfoCStL2n02MVMXdX/VLvAH);whiteSpace=wrap;html=1;labelPosition=center;verticalLabelPosition=bottom;align=center;verticalAlign=top;" vertex="1" parent="1">
          <mxGeometry x="637" y="765" width="30" height="30" as="geometry" />
      </mxCell>
    </object><object id="140282356029232" label="U([0.0,0.03395))">
      <mxCell style="rounded=1;whiteSpace=wrap;html=1;labelPosition=center;verticalLabelPosition=top;align=center;verticalAlign=bottom;" vertex="1" parent="1">
          <mxGeometry x="555" y="433" width="30" height="30" as="geometry" />
      </mxCell>
    </object><object id="140282356029328" label="U([0.03395,0.08659))">
      <mxCell style="rounded=1;whiteSpace=wrap;html=1;labelPosition=center;verticalLabelPosition=top;align=center;verticalAlign=bottom;" vertex="1" parent="1">
          <mxGeometry x="574" y="430" width="30" height="30" as="geometry" />
      </mxCell>
    </object><object id="140282356029520" label="U([0.08659,0.2012])">
      <mxCell style="rounded=1;whiteSpace=wrap;html=1;labelPosition=center;verticalLabelPosition=top;align=center;verticalAlign=bottom;" vertex="1" parent="1">
          <mxGeometry x="593" y="427" width="30" height="30" as="geometry" />
      </mxCell>
    </object><object id="140282356030912" label="DetermSumUnit">
      <mxCell style="shape=stencil(tZXdboQgEIWfhttGISa7l41t34PqWMmyYID96dsXRVNBZXeNJsaEGfw4mZmDiOS6pg0gnNSIfCCM0ySxb7u+BWuqGyiMC1bsDqULa6PkCW6sND2AiRoUM22WfKLk3e5pH5IXUghLYFJoLzPKWxhlwn6b3B2sP/vXWzWWfwYDqlfoogh/PY99y/YBpzvp9bGD+s31bgf2Fad7NW4zcLoeS3IbWRpukn/T4vSj5EWUs2KAc9ZoeDDyoRlDs85qWjiZ5JVUEJGk6RUi5asY5871kU3ja8HK/78ecLw3DW03ThJD+iyvo1JlwZRlMfaA4EwsIw5PIXwVqT+SA/EVFYdXEF1vF+o0FH5NZx64RoE2dm626t3smMdrNrFKUDXPKkffKcfoCStL2n02MVMXdX/VLvAH);whiteSpace=wrap;html=1;labelPosition=center;verticalLabelPosition=bottom;align=center;verticalAlign=top;" vertex="1" parent="1">
          <mxGeometry x="665" y="762" width="30" height="30" as="geometry" />
      </mxCell>
    </object><object id="140282356030624" label="U([0.0,0.06922500000000001))">
      <mxCell style="rounded=1;whiteSpace=wrap;html=1;labelPosition=center;verticalLabelPosition=top;align=center;verticalAlign=bottom;" vertex="1" parent="1">
          <mxGeometry x="612" y="425" width="30" height="30" as="geometry" />
      </mxCell>
    </object><object id="140282356030528" label="U([0.06922500000000001,0.15560000000000002))">
      <mxCell style="rounded=1;whiteSpace=wrap;html=1;labelPosition=center;verticalLabelPosition=top;align=center;verticalAlign=bottom;" vertex="1" parent="1">
          <mxGeometry x="632" y="424" width="30" height="30" as="geometry" />
      </mxCell>
    </object><object id="140282356031008" label="U([0.15560000000000002,0.4268])">
      <mxCell style="rounded=1;whiteSpace=wrap;html=1;labelPosition=center;verticalLabelPosition=top;align=center;verticalAlign=bottom;" vertex="1" parent="1">
          <mxGeometry x="651" y="422" width="30" height="30" as="geometry" />
      </mxCell>
    </object><object id="140282356031392" label="DetermSumUnit">
      <mxCell style="shape=stencil(tZXdboQgEIWfhttGISa7l41t34PqWMmyYID96dsXRVNBZXeNJsaEGfw4mZmDiOS6pg0gnNSIfCCM0ySxb7u+BWuqGyiMC1bsDqULa6PkCW6sND2AiRoUM22WfKLk3e5pH5IXUghLYFJoLzPKWxhlwn6b3B2sP/vXWzWWfwYDqlfoogh/PY99y/YBpzvp9bGD+s31bgf2Fad7NW4zcLoeS3IbWRpukn/T4vSj5EWUs2KAc9ZoeDDyoRlDs85qWjiZ5JVUEJGk6RUi5asY5871kU3ja8HK/78ecLw3DW03ThJD+iyvo1JlwZRlMfaA4EwsIw5PIXwVqT+SA/EVFYdXEF1vF+o0FH5NZx64RoE2dm626t3smMdrNrFKUDXPKkffKcfoCStL2n02MVMXdX/VLvAH);whiteSpace=wrap;html=1;labelPosition=center;verticalLabelPosition=bottom;align=center;verticalAlign=top;" vertex="1" parent="1">
          <mxGeometry x="685" y="762" width="30" height="30" as="geometry" />
      </mxCell>
    </object><object id="140282356069040" label="U([0.04996,0.067965))">
      <mxCell style="rounded=1;whiteSpace=wrap;html=1;labelPosition=center;verticalLabelPosition=top;align=center;verticalAlign=bottom;" vertex="1" parent="1">
          <mxGeometry x="670" y="422" width="30" height="30" as="geometry" />
      </mxCell>
    </object><object id="140282356068992" label="U([0.067965,0.09744])">
      <mxCell style="rounded=1;whiteSpace=wrap;html=1;labelPosition=center;verticalLabelPosition=top;align=center;verticalAlign=bottom;" vertex="1" parent="1">
          <mxGeometry x="690" y="422" width="30" height="30" as="geometry" />
      </mxCell>
    </object><object id="140282356030768" label="DetermSumUnit">
      <mxCell style="shape=stencil(tZXdboQgEIWfhttGISa7l41t34PqWMmyYID96dsXRVNBZXeNJsaEGfw4mZmDiOS6pg0gnNSIfCCM0ySxb7u+BWuqGyiMC1bsDqULa6PkCW6sND2AiRoUM22WfKLk3e5pH5IXUghLYFJoLzPKWxhlwn6b3B2sP/vXWzWWfwYDqlfoogh/PY99y/YBpzvp9bGD+s31bgf2Fad7NW4zcLoeS3IbWRpukn/T4vSj5EWUs2KAc9ZoeDDyoRlDs85qWjiZ5JVUEJGk6RUi5asY5871kU3ja8HK/78ecLw3DW03ThJD+iyvo1JlwZRlMfaA4EwsIw5PIXwVqT+SA/EVFYdXEF1vF+o0FH5NZx64RoE2dm626t3smMdrNrFKUDXPKkffKcfoCStL2n02MVMXdX/VLvAH);whiteSpace=wrap;html=1;labelPosition=center;verticalLabelPosition=bottom;align=center;verticalAlign=top;" vertex="1" parent="1">
          <mxGeometry x="714" y="764" width="30" height="30" as="geometry" />
      </mxCell>
    </object><object id="140282356030816" label="U([103.94999999999999,188.5])">
      <mxCell style="rounded=1;whiteSpace=wrap;html=1;labelPosition=center;verticalLabelPosition=top;align=center;verticalAlign=bottom;" vertex="1" parent="1">
          <mxGeometry x="709" y="422" width="30" height="30" as="geometry" />
      </mxCell>
    </object><object id="140282356030480" label="U([43.79,72.88))">
      <mxCell style="rounded=1;whiteSpace=wrap;html=1;labelPosition=center;verticalLabelPosition=top;align=center;verticalAlign=bottom;" vertex="1" parent="1">
          <mxGeometry x="728" y="424" width="30" height="30" as="geometry" />
      </mxCell>
    </object><object id="140282356030144" label="U([72.88,103.94999999999999))">
      <mxCell style="rounded=1;whiteSpace=wrap;html=1;labelPosition=center;verticalLabelPosition=top;align=center;verticalAlign=bottom;" vertex="1" parent="1">
          <mxGeometry x="748" y="425" width="30" height="30" as="geometry" />
      </mxCell>
    </object><object id="140282356027648" label="DetermSumUnit">
      <mxCell style="shape=stencil(tZXdboQgEIWfhttGISa7l41t34PqWMmyYID96dsXRVNBZXeNJsaEGfw4mZmDiOS6pg0gnNSIfCCM0ySxb7u+BWuqGyiMC1bsDqULa6PkCW6sND2AiRoUM22WfKLk3e5pH5IXUghLYFJoLzPKWxhlwn6b3B2sP/vXWzWWfwYDqlfoogh/PY99y/YBpzvp9bGD+s31bgf2Fad7NW4zcLoeS3IbWRpukn/T4vSj5EWUs2KAc9ZoeDDyoRlDs85qWjiZ5JVUEJGk6RUi5asY5871kU3ja8HK/78ecLw3DW03ThJD+iyvo1JlwZRlMfaA4EwsIw5PIXwVqT+SA/EVFYdXEF1vF+o0FH5NZx64RoE2dm626t3smMdrNrFKUDXPKkffKcfoCStL2n02MVMXdX/VLvAH);whiteSpace=wrap;html=1;labelPosition=center;verticalLabelPosition=bottom;align=center;verticalAlign=top;" vertex="1" parent="1">
          <mxGeometry x="743" y="768" width="30" height="30" as="geometry" />
      </mxCell>
    </object><object id="140282356028128" label="U([16.285,28.11])">
      <mxCell style="rounded=1;whiteSpace=wrap;html=1;labelPosition=center;verticalLabelPosition=top;align=center;verticalAlign=bottom;" vertex="1" parent="1">
          <mxGeometry x="767" y="427" width="30" height="30" as="geometry" />
      </mxCell>
    </object><object id="140282356027984" label="U([6.981,11.44))">
      <mxCell style="rounded=1;whiteSpace=wrap;html=1;labelPosition=center;verticalLabelPosition=top;align=center;verticalAlign=bottom;" vertex="1" parent="1">
          <mxGeometry x="786" y="430" width="30" height="30" as="geometry" />
      </mxCell>
    </object><object id="140282356001904" label="U([11.44,16.285))">
      <mxCell style="rounded=1;whiteSpace=wrap;html=1;labelPosition=center;verticalLabelPosition=top;align=center;verticalAlign=bottom;" vertex="1" parent="1">
          <mxGeometry x="805" y="433" width="30" height="30" as="geometry" />
      </mxCell>
    </object><object id="140282356028320" label="DetermSumUnit">
      <mxCell style="shape=stencil(tZXdboQgEIWfhttGISa7l41t34PqWMmyYID96dsXRVNBZXeNJsaEGfw4mZmDiOS6pg0gnNSIfCCM0ySxb7u+BWuqGyiMC1bsDqULa6PkCW6sND2AiRoUM22WfKLk3e5pH5IXUghLYFJoLzPKWxhlwn6b3B2sP/vXWzWWfwYDqlfoogh/PY99y/YBpzvp9bGD+s31bgf2Fad7NW4zcLoeS3IbWRpukn/T4vSj5EWUs2KAc9ZoeDDyoRlDs85qWjiZ5JVUEJGk6RUi5asY5871kU3ja8HK/78ecLw3DW03ThJD+iyvo1JlwZRlMfaA4EwsIw5PIXwVqT+SA/EVFYdXEF1vF+o0FH5NZx64RoE2dm626t3smMdrNrFKUDXPKkffKcfoCStL2n02MVMXdX/VLvAH);whiteSpace=wrap;html=1;labelPosition=center;verticalLabelPosition=bottom;align=center;verticalAlign=top;" vertex="1" parent="1">
          <mxGeometry x="771" y="774" width="30" height="30" as="geometry" />
      </mxCell>
    </object><object id="140282356001424" label="U([0.10535,0.1634])">
      <mxCell style="rounded=1;whiteSpace=wrap;html=1;labelPosition=center;verticalLabelPosition=top;align=center;verticalAlign=bottom;" vertex="1" parent="1">
          <mxGeometry x="824" y="437" width="30" height="30" as="geometry" />
      </mxCell>
    </object><object id="140282356001280" label="U([0.05263,0.08363999999999999))">
      <mxCell style="rounded=1;whiteSpace=wrap;html=1;labelPosition=center;verticalLabelPosition=top;align=center;verticalAlign=bottom;" vertex="1" parent="1">
          <mxGeometry x="843" y="442" width="30" height="30" as="geometry" />
      </mxCell>
    </object><object id="140282356001328" label="U([0.08363999999999999,0.10535))">
      <mxCell style="rounded=1;whiteSpace=wrap;html=1;labelPosition=center;verticalLabelPosition=top;align=center;verticalAlign=bottom;" vertex="1" parent="1">
          <mxGeometry x="862" y="447" width="30" height="30" as="geometry" />
      </mxCell>
    </object><object id="140282355998784" label="DetermSumUnit">
      <mxCell style="shape=stencil(tZXdboQgEIWfhttGISa7l41t34PqWMmyYID96dsXRVNBZXeNJsaEGfw4mZmDiOS6pg0gnNSIfCCM0ySxb7u+BWuqGyiMC1bsDqULa6PkCW6sND2AiRoUM22WfKLk3e5pH5IXUghLYFJoLzPKWxhlwn6b3B2sP/vXWzWWfwYDqlfoogh/PY99y/YBpzvp9bGD+s31bgf2Fad7NW4zcLoeS3IbWRpukn/T4vSj5EWUs2KAc9ZoeDDyoRlDs85qWjiZ5JVUEJGk6RUi5asY5871kU3ja8HK/78ecLw3DW03ThJD+iyvo1JlwZRlMfaA4EwsIw5PIXwVqT+SA/EVFYdXEF1vF+o0FH5NZx64RoE2dm626t3smMdrNrFKUDXPKkffKcfoCStL2n02MVMXdX/VLvAH);whiteSpace=wrap;html=1;labelPosition=center;verticalLabelPosition=bottom;align=center;verticalAlign=top;" vertex="1" parent="1">
          <mxGeometry x="798" y="783" width="30" height="30" as="geometry" />
      </mxCell>
    </object><object id="140282356358592" label="U([0.20140000000000002,0.304])">
      <mxCell style="rounded=1;whiteSpace=wrap;html=1;labelPosition=center;verticalLabelPosition=top;align=center;verticalAlign=bottom;" vertex="1" parent="1">
          <mxGeometry x="880" y="452" width="30" height="30" as="geometry" />
      </mxCell>
    </object><object id="140282356358112" label="U([0.106,0.15994999999999998))">
      <mxCell style="rounded=1;whiteSpace=wrap;html=1;labelPosition=center;verticalLabelPosition=top;align=center;verticalAlign=bottom;" vertex="1" parent="1">
          <mxGeometry x="899" y="458" width="30" height="30" as="geometry" />
      </mxCell>
    </object><object id="140282356358544" label="U([0.15994999999999998,0.20140000000000002))">
      <mxCell style="rounded=1;whiteSpace=wrap;html=1;labelPosition=center;verticalLabelPosition=top;align=center;verticalAlign=bottom;" vertex="1" parent="1">
          <mxGeometry x="917" y="465" width="30" height="30" as="geometry" />
      </mxCell>
    </object><object id="140282356356672" label="DetermSumUnit">
      <mxCell style="shape=stencil(tZXdboQgEIWfhttGISa7l41t34PqWMmyYID96dsXRVNBZXeNJsaEGfw4mZmDiOS6pg0gnNSIfCCM0ySxb7u+BWuqGyiMC1bsDqULa6PkCW6sND2AiRoUM22WfKLk3e5pH5IXUghLYFJoLzPKWxhlwn6b3B2sP/vXWzWWfwYDqlfoogh/PY99y/YBpzvp9bGD+s31bgf2Fad7NW4zcLoeS3IbWRpukn/T4vSj5EWUs2KAc9ZoeDDyoRlDs85qWjiZ5JVUEJGk6RUi5asY5871kU3ja8HK/78ecLw3DW03ThJD+iyvo1JlwZRlMfaA4EwsIw5PIXwVqT+SA/EVFYdXEF1vF+o0FH5NZx64RoE2dm626t3smMdrNrFKUDXPKkffKcfoCStL2n02MVMXdX/VLvAH);whiteSpace=wrap;html=1;labelPosition=center;verticalLabelPosition=bottom;align=center;verticalAlign=top;" vertex="1" parent="1">
          <mxGeometry x="825" y="795" width="30" height="30" as="geometry" />
      </mxCell>
    </object><object id="140282356069280" label="U([22.58,39.28])">
      <mxCell style="rounded=1;whiteSpace=wrap;html=1;labelPosition=center;verticalLabelPosition=top;align=center;verticalAlign=bottom;" vertex="1" parent="1">
          <mxGeometry x="935" y="472" width="30" height="30" as="geometry" />
      </mxCell>
    </object><object id="140282356069616" label="U([9.71,15.61))">
      <mxCell style="rounded=1;whiteSpace=wrap;html=1;labelPosition=center;verticalLabelPosition=top;align=center;verticalAlign=bottom;" vertex="1" parent="1">
          <mxGeometry x="953" y="479" width="30" height="30" as="geometry" />
      </mxCell>
    </object><object id="140282356070240" label="U([15.61,22.58))">
      <mxCell style="rounded=1;whiteSpace=wrap;html=1;labelPosition=center;verticalLabelPosition=top;align=center;verticalAlign=bottom;" vertex="1" parent="1">
          <mxGeometry x="971" y="487" width="30" height="30" as="geometry" />
      </mxCell>
    </object><object id="140282356071248" label="DetermSumUnit">
      <mxCell style="shape=stencil(tZXdboQgEIWfhttGISa7l41t34PqWMmyYID96dsXRVNBZXeNJsaEGfw4mZmDiOS6pg0gnNSIfCCM0ySxb7u+BWuqGyiMC1bsDqULa6PkCW6sND2AiRoUM22WfKLk3e5pH5IXUghLYFJoLzPKWxhlwn6b3B2sP/vXWzWWfwYDqlfoogh/PY99y/YBpzvp9bGD+s31bgf2Fad7NW4zcLoeS3IbWRpukn/T4vSj5EWUs2KAc9ZoeDDyoRlDs85qWjiZ5JVUEJGk6RUi5asY5871kU3ja8HK/78ecLw3DW03ThJD+iyvo1JlwZRlMfaA4EwsIw5PIXwVqT+SA/EVFYdXEF1vF+o0FH5NZx64RoE2dm626t3smMdrNrFKUDXPKkffKcfoCStL2n02MVMXdX/VLvAH);whiteSpace=wrap;html=1;labelPosition=center;verticalLabelPosition=bottom;align=center;verticalAlign=top;" vertex="1" parent="1">
          <mxGeometry x="843" y="803" width="30" height="30" as="geometry" />
      </mxCell>
    </object><object id="140282356070960" label="U([0.757,3.292))">
      <mxCell style="rounded=1;whiteSpace=wrap;html=1;labelPosition=center;verticalLabelPosition=top;align=center;verticalAlign=bottom;" vertex="1" parent="1">
          <mxGeometry x="988" y="496" width="30" height="30" as="geometry" />
      </mxCell>
    </object><object id="140282356070912" label="U([3.292,21.98])">
      <mxCell style="rounded=1;whiteSpace=wrap;html=1;labelPosition=center;verticalLabelPosition=top;align=center;verticalAlign=bottom;" vertex="1" parent="1">
          <mxGeometry x="1005" y="505" width="30" height="30" as="geometry" />
      </mxCell>
    </object><object id="140282356072208" label="DetermSumUnit">
      <mxCell style="shape=stencil(tZXdboQgEIWfhttGISa7l41t34PqWMmyYID96dsXRVNBZXeNJsaEGfw4mZmDiOS6pg0gnNSIfCCM0ySxb7u+BWuqGyiMC1bsDqULa6PkCW6sND2AiRoUM22WfKLk3e5pH5IXUghLYFJoLzPKWxhlwn6b3B2sP/vXWzWWfwYDqlfoogh/PY99y/YBpzvp9bGD+s31bgf2Fad7NW4zcLoeS3IbWRpukn/T4vSj5EWUs2KAc9ZoeDDyoRlDs85qWjiZ5JVUEJGk6RUi5asY5871kU3ja8HK/78ecLw3DW03ThJD+iyvo1JlwZRlMfaA4EwsIw5PIXwVqT+SA/EVFYdXEF1vF+o0FH5NZx64RoE2dm626t3smMdrNrFKUDXPKkffKcfoCStL2n02MVMXdX/VLvAH);whiteSpace=wrap;html=1;labelPosition=center;verticalLabelPosition=bottom;align=center;verticalAlign=top;" vertex="1" parent="1">
          <mxGeometry x="859" y="813" width="30" height="30" as="geometry" />
      </mxCell>
    </object><object id="140282356101184" label="U([0.1115,0.4389))">
      <mxCell style="rounded=1;whiteSpace=wrap;html=1;labelPosition=center;verticalLabelPosition=top;align=center;verticalAlign=bottom;" vertex="1" parent="1">
          <mxGeometry x="1022" y="514" width="30" height="30" as="geometry" />
      </mxCell>
    </object><object id="140282356101376" label="U([0.4389,2.873])">
      <mxCell style="rounded=1;whiteSpace=wrap;html=1;labelPosition=center;verticalLabelPosition=top;align=center;verticalAlign=bottom;" vertex="1" parent="1">
          <mxGeometry x="1039" y="524" width="30" height="30" as="geometry" />
      </mxCell>
    </object><object id="140282356102240" label="DetermSumUnit">
      <mxCell style="shape=stencil(tZXdboQgEIWfhttGISa7l41t34PqWMmyYID96dsXRVNBZXeNJsaEGfw4mZmDiOS6pg0gnNSIfCCM0ySxb7u+BWuqGyiMC1bsDqULa6PkCW6sND2AiRoUM22WfKLk3e5pH5IXUghLYFJoLzPKWxhlwn6b3B2sP/vXWzWWfwYDqlfoogh/PY99y/YBpzvp9bGD+s31bgf2Fad7NW4zcLoeS3IbWRpukn/T4vSj5EWUs2KAc9ZoeDDyoRlDs85qWjiZ5JVUEJGk6RUi5asY5871kU3ja8HK/78ecLw3DW03ThJD+iyvo1JlwZRlMfaA4EwsIw5PIXwVqT+SA/EVFYdXEF1vF+o0FH5NZx64RoE2dm626t3smMdrNrFKUDXPKkffKcfoCStL2n02MVMXdX/VLvAH);whiteSpace=wrap;html=1;labelPosition=center;verticalLabelPosition=bottom;align=center;verticalAlign=top;" vertex="1" parent="1">
          <mxGeometry x="891" y="835" width="30" height="30" as="geometry" />
      </mxCell>
    </object><object id="140282356102528" label="U([0.009028,0.03113])">
      <mxCell style="rounded=1;whiteSpace=wrap;html=1;labelPosition=center;verticalLabelPosition=top;align=center;verticalAlign=bottom;" vertex="1" parent="1">
          <mxGeometry x="1055" y="534" width="30" height="30" as="geometry" />
      </mxCell>
    </object><object id="140282356102480" label="U([0.001713,0.0047225))">
      <mxCell style="rounded=1;whiteSpace=wrap;html=1;labelPosition=center;verticalLabelPosition=top;align=center;verticalAlign=bottom;" vertex="1" parent="1">
          <mxGeometry x="1071" y="545" width="30" height="30" as="geometry" />
      </mxCell>
    </object><object id="140282356102384" label="U([0.0047225,0.0068065))">
      <mxCell style="rounded=1;whiteSpace=wrap;html=1;labelPosition=center;verticalLabelPosition=top;align=center;verticalAlign=bottom;" vertex="1" parent="1">
          <mxGeometry x="1087" y="557" width="30" height="30" as="geometry" />
      </mxCell>
    </object><object id="140282356103008" label="U([0.0068065,0.009028))">
      <mxCell style="rounded=1;whiteSpace=wrap;html=1;labelPosition=center;verticalLabelPosition=top;align=center;verticalAlign=bottom;" vertex="1" parent="1">
          <mxGeometry x="1102" y="569" width="30" height="30" as="geometry" />
      </mxCell>
    </object><object id="140282356104112" label="DetermSumUnit">
      <mxCell style="shape=stencil(tZXdboQgEIWfhttGISa7l41t34PqWMmyYID96dsXRVNBZXeNJsaEGfw4mZmDiOS6pg0gnNSIfCCM0ySxb7u+BWuqGyiMC1bsDqULa6PkCW6sND2AiRoUM22WfKLk3e5pH5IXUghLYFJoLzPKWxhlwn6b3B2sP/vXWzWWfwYDqlfoogh/PY99y/YBpzvp9bGD+s31bgf2Fad7NW4zcLoeS3IbWRpukn/T4vSj5EWUs2KAc9ZoeDDyoRlDs85qWjiZ5JVUEJGk6RUi5asY5871kU3ja8HK/78ecLw3DW03ThJD+iyvo1JlwZRlMfaA4EwsIw5PIXwVqT+SA/EVFYdXEF1vF+o0FH5NZx64RoE2dm626t3smMdrNrFKUDXPKkffKcfoCStL2n02MVMXdX/VLvAH);whiteSpace=wrap;html=1;labelPosition=center;verticalLabelPosition=bottom;align=center;verticalAlign=top;" vertex="1" parent="1">
          <mxGeometry x="913" y="854" width="30" height="30" as="geometry" />
      </mxCell>
    </object><object id="140282356103920" label="U([0.02386,0.07895])">
      <mxCell style="rounded=1;whiteSpace=wrap;html=1;labelPosition=center;verticalLabelPosition=top;align=center;verticalAlign=bottom;" vertex="1" parent="1">
          <mxGeometry x="1117" y="581" width="30" height="30" as="geometry" />
      </mxCell>
    </object><object id="140282356103872" label="U([0.007882,0.014525))">
      <mxCell style="rounded=1;whiteSpace=wrap;html=1;labelPosition=center;verticalLabelPosition=top;align=center;verticalAlign=bottom;" vertex="1" parent="1">
          <mxGeometry x="1132" y="593" width="30" height="30" as="geometry" />
      </mxCell>
    </object><object id="140282356104208" label="U([0.014525,0.02386))">
      <mxCell style="rounded=1;whiteSpace=wrap;html=1;labelPosition=center;verticalLabelPosition=top;align=center;verticalAlign=bottom;" vertex="1" parent="1">
          <mxGeometry x="1146" y="606" width="30" height="30" as="geometry" />
      </mxCell>
    </object><object id="140282356103536" label="DetermSumUnit">
      <mxCell style="shape=stencil(tZXdboQgEIWfhttGISa7l41t34PqWMmyYID96dsXRVNBZXeNJsaEGfw4mZmDiOS6pg0gnNSIfCCM0ySxb7u+BWuqGyiMC1bsDqULa6PkCW6sND2AiRoUM22WfKLk3e5pH5IXUghLYFJoLzPKWxhlwn6b3B2sP/vXWzWWfwYDqlfoogh/PY99y/YBpzvp9bGD+s31bgf2Fad7NW4zcLoeS3IbWRpukn/T4vSj5EWUs2KAc9ZoeDDyoRlDs85qWjiZ5JVUEJGk6RUi5asY5871kU3ja8HK/78ecLw3DW03ThJD+iyvo1JlwZRlMfaA4EwsIw5PIXwVqT+SA/EVFYdXEF1vF+o0FH5NZx64RoE2dm626t3smMdrNrFKUDXPKkffKcfoCStL2n02MVMXdX/VLvAH);whiteSpace=wrap;html=1;labelPosition=center;verticalLabelPosition=bottom;align=center;verticalAlign=top;" vertex="1" parent="1">
          <mxGeometry x="927" y="868" width="30" height="30" as="geometry" />
      </mxCell>
    </object><object id="140282356103824" label="U([0.3602,1.6))">
      <mxCell style="rounded=1;whiteSpace=wrap;html=1;labelPosition=center;verticalLabelPosition=top;align=center;verticalAlign=bottom;" vertex="1" parent="1">
          <mxGeometry x="1160" y="620" width="30" height="30" as="geometry" />
      </mxCell>
    </object><object id="140282356103632" label="U([1.6,4.885])">
      <mxCell style="rounded=1;whiteSpace=wrap;html=1;labelPosition=center;verticalLabelPosition=top;align=center;verticalAlign=bottom;" vertex="1" parent="1">
          <mxGeometry x="1173" y="634" width="30" height="30" as="geometry" />
      </mxCell>
    </object><object id="140282356101424" label="DetermSumUnit">
      <mxCell style="shape=stencil(tZXdboQgEIWfhttGISa7l41t34PqWMmyYID96dsXRVNBZXeNJsaEGfw4mZmDiOS6pg0gnNSIfCCM0ySxb7u+BWuqGyiMC1bsDqULa6PkCW6sND2AiRoUM22WfKLk3e5pH5IXUghLYFJoLzPKWxhlwn6b3B2sP/vXWzWWfwYDqlfoogh/PY99y/YBpzvp9bGD+s31bgf2Fad7NW4zcLoeS3IbWRpukn/T4vSj5EWUs2KAc9ZoeDDyoRlDs85qWjiZ5JVUEJGk6RUi5asY5871kU3ja8HK/78ecLw3DW03ThJD+iyvo1JlwZRlMfaA4EwsIw5PIXwVqT+SA/EVFYdXEF1vF+o0FH5NZx64RoE2dm626t3smMdrNrFKUDXPKkffKcfoCStL2n02MVMXdX/VLvAH);whiteSpace=wrap;html=1;labelPosition=center;verticalLabelPosition=bottom;align=center;verticalAlign=top;" vertex="1" parent="1">
          <mxGeometry x="946" y="890" width="30" height="30" as="geometry" />
      </mxCell>
    </object><object id="140282356072304" label="U([831.85,4254.0])">
      <mxCell style="rounded=1;whiteSpace=wrap;html=1;labelPosition=center;verticalLabelPosition=top;align=center;verticalAlign=bottom;" vertex="1" parent="1">
          <mxGeometry x="1186" y="648" width="30" height="30" as="geometry" />
      </mxCell>
    </object><object id="140282356072352" label="U([185.2,468.9))">
      <mxCell style="rounded=1;whiteSpace=wrap;html=1;labelPosition=center;verticalLabelPosition=top;align=center;verticalAlign=bottom;" vertex="1" parent="1">
          <mxGeometry x="1199" y="663" width="30" height="30" as="geometry" />
      </mxCell>
    </object><object id="140282356072160" label="U([468.9,831.85))">
      <mxCell style="rounded=1;whiteSpace=wrap;html=1;labelPosition=center;verticalLabelPosition=top;align=center;verticalAlign=bottom;" vertex="1" parent="1">
          <mxGeometry x="1211" y="678" width="30" height="30" as="geometry" />
      </mxCell>
    </object><object id="140282356070576" label="DetermSumUnit">
      <mxCell style="shape=stencil(tZXdboQgEIWfhttGISa7l41t34PqWMmyYID96dsXRVNBZXeNJsaEGfw4mZmDiOS6pg0gnNSIfCCM0ySxb7u+BWuqGyiMC1bsDqULa6PkCW6sND2AiRoUM22WfKLk3e5pH5IXUghLYFJoLzPKWxhlwn6b3B2sP/vXWzWWfwYDqlfoogh/PY99y/YBpzvp9bGD+s31bgf2Fad7NW4zcLoeS3IbWRpukn/T4vSj5EWUs2KAc9ZoeDDyoRlDs85qWjiZ5JVUEJGk6RUi5asY5871kU3ja8HK/78ecLw3DW03ThJD+iyvo1JlwZRlMfaA4EwsIw5PIXwVqT+SA/EVFYdXEF1vF+o0FH5NZx64RoE2dm626t3smMdrNrFKUDXPKkffKcfoCStL2n02MVMXdX/VLvAH);whiteSpace=wrap;html=1;labelPosition=center;verticalLabelPosition=bottom;align=center;verticalAlign=top;" vertex="1" parent="1">
          <mxGeometry x="957" y="905" width="30" height="30" as="geometry" />
      </mxCell>
    </object><object id="140282356356864" label="U([0.02729,0.3631))">
      <mxCell style="rounded=1;whiteSpace=wrap;html=1;labelPosition=center;verticalLabelPosition=top;align=center;verticalAlign=bottom;" vertex="1" parent="1">
          <mxGeometry x="1223" y="693" width="30" height="30" as="geometry" />
      </mxCell>
    </object><object id="140282356356624" label="U([0.3631,1.058])">
      <mxCell style="rounded=1;whiteSpace=wrap;html=1;labelPosition=center;verticalLabelPosition=top;align=center;verticalAlign=bottom;" vertex="1" parent="1">
          <mxGeometry x="1235" y="709" width="30" height="30" as="geometry" />
      </mxCell>
    </object><object id="140282356356576" label="DetermSumUnit">
      <mxCell style="shape=stencil(tZXdboQgEIWfhttGISa7l41t34PqWMmyYID96dsXRVNBZXeNJsaEGfw4mZmDiOS6pg0gnNSIfCCM0ySxb7u+BWuqGyiMC1bsDqULa6PkCW6sND2AiRoUM22WfKLk3e5pH5IXUghLYFJoLzPKWxhlwn6b3B2sP/vXWzWWfwYDqlfoogh/PY99y/YBpzvp9bGD+s31bgf2Fad7NW4zcLoeS3IbWRpukn/T4vSj5EWUs2KAc9ZoeDDyoRlDs85qWjiZ5JVUEJGk6RUi5asY5871kU3ja8HK/78ecLw3DW03ThJD+iyvo1JlwZRlMfaA4EwsIw5PIXwVqT+SA/EVFYdXEF1vF+o0FH5NZx64RoE2dm626t3smMdrNrFKUDXPKkffKcfoCStL2n02MVMXdX/VLvAH);whiteSpace=wrap;html=1;labelPosition=center;verticalLabelPosition=bottom;align=center;verticalAlign=top;" vertex="1" parent="1">
          <mxGeometry x="968" y="921" width="30" height="30" as="geometry" />
      </mxCell>
    </object><object id="140282355999216" label="U([0.0,0.1787))">
      <mxCell style="rounded=1;whiteSpace=wrap;html=1;labelPosition=center;verticalLabelPosition=top;align=center;verticalAlign=bottom;" vertex="1" parent="1">
          <mxGeometry x="1246" y="724" width="30" height="30" as="geometry" />
      </mxCell>
    </object><object id="140282355999168" label="U([0.1787,0.291])">
      <mxCell style="rounded=1;whiteSpace=wrap;html=1;labelPosition=center;verticalLabelPosition=top;align=center;verticalAlign=bottom;" vertex="1" parent="1">
          <mxGeometry x="1256" y="741" width="30" height="30" as="geometry" />
      </mxCell>
    </object><object id="140282356001520" label="DetermSumUnit">
      <mxCell style="shape=stencil(tZXdboQgEIWfhttGISa7l41t34PqWMmyYID96dsXRVNBZXeNJsaEGfw4mZmDiOS6pg0gnNSIfCCM0ySxb7u+BWuqGyiMC1bsDqULa6PkCW6sND2AiRoUM22WfKLk3e5pH5IXUghLYFJoLzPKWxhlwn6b3B2sP/vXWzWWfwYDqlfoogh/PY99y/YBpzvp9bGD+s31bgf2Fad7NW4zcLoeS3IbWRpukn/T4vSj5EWUs2KAc9ZoeDDyoRlDs85qWjiZ5JVUEJGk6RUi5asY5871kU3ja8HK/78ecLw3DW03ThJD+iyvo1JlwZRlMfaA4EwsIw5PIXwVqT+SA/EVFYdXEF1vF+o0FH5NZx64RoE2dm626t3smMdrNrFKUDXPKkffKcfoCStL2n02MVMXdX/VLvAH);whiteSpace=wrap;html=1;labelPosition=center;verticalLabelPosition=bottom;align=center;verticalAlign=top;" vertex="1" parent="1">
          <mxGeometry x="978" y="938" width="30" height="30" as="geometry" />
      </mxCell>
    </object><object id="140282356030096" label="U([0.0,0.40345))">
      <mxCell style="rounded=1;whiteSpace=wrap;html=1;labelPosition=center;verticalLabelPosition=top;align=center;verticalAlign=bottom;" vertex="1" parent="1">
          <mxGeometry x="1266" y="757" width="30" height="30" as="geometry" />
      </mxCell>
    </object><object id="140282356028896" label="U([0.40345,1.252])">
      <mxCell style="rounded=1;whiteSpace=wrap;html=1;labelPosition=center;verticalLabelPosition=top;align=center;verticalAlign=bottom;" vertex="1" parent="1">
          <mxGeometry x="1276" y="774" width="30" height="30" as="geometry" />
      </mxCell>
    </object><object id="140282356029184" label="DetermSumUnit">
      <mxCell style="shape=stencil(tZXdboQgEIWfhttGISa7l41t34PqWMmyYID96dsXRVNBZXeNJsaEGfw4mZmDiOS6pg0gnNSIfCCM0ySxb7u+BWuqGyiMC1bsDqULa6PkCW6sND2AiRoUM22WfKLk3e5pH5IXUghLYFJoLzPKWxhlwn6b3B2sP/vXWzWWfwYDqlfoogh/PY99y/YBpzvp9bGD+s31bgf2Fad7NW4zcLoeS3IbWRpukn/T4vSj5EWUs2KAc9ZoeDDyoRlDs85qWjiZ5JVUEJGk6RUi5asY5871kU3ja8HK/78ecLw3DW03ThJD+iyvo1JlwZRlMfaA4EwsIw5PIXwVqT+SA/EVFYdXEF1vF+o0FH5NZx64RoE2dm626t3smMdrNrFKUDXPKkffKcfoCStL2n02MVMXdX/VLvAH);whiteSpace=wrap;html=1;labelPosition=center;verticalLabelPosition=bottom;align=center;verticalAlign=top;" vertex="1" parent="1">
          <mxGeometry x="987" y="955" width="30" height="30" as="geometry" />
      </mxCell>
    </object><object id="140282356138912" label="U([0.05504,0.09370500000000001))">
      <mxCell style="rounded=1;whiteSpace=wrap;html=1;labelPosition=center;verticalLabelPosition=top;align=center;verticalAlign=bottom;" vertex="1" parent="1">
          <mxGeometry x="1285" y="791" width="30" height="30" as="geometry" />
      </mxCell>
    </object><object id="140282356139056" label="U([0.09370500000000001,0.2075])">
      <mxCell style="rounded=1;whiteSpace=wrap;html=1;labelPosition=center;verticalLabelPosition=top;align=center;verticalAlign=bottom;" vertex="1" parent="1">
          <mxGeometry x="1294" y="809" width="30" height="30" as="geometry" />
      </mxCell>
    </object><object id="140282356140064" label="DetermSumUnit">
      <mxCell style="shape=stencil(tZXdboQgEIWfhttGISa7l41t34PqWMmyYID96dsXRVNBZXeNJsaEGfw4mZmDiOS6pg0gnNSIfCCM0ySxb7u+BWuqGyiMC1bsDqULa6PkCW6sND2AiRoUM22WfKLk3e5pH5IXUghLYFJoLzPKWxhlwn6b3B2sP/vXWzWWfwYDqlfoogh/PY99y/YBpzvp9bGD+s31bgf2Fad7NW4zcLoeS3IbWRpukn/T4vSj5EWUs2KAc9ZoeDDyoRlDs85qWjiZ5JVUEJGk6RUi5asY5871kU3ja8HK/78ecLw3DW03ThJD+iyvo1JlwZRlMfaA4EwsIw5PIXwVqT+SA/EVFYdXEF1vF+o0FH5NZx64RoE2dm626t3smMdrNrFKUDXPKkffKcfoCStL2n02MVMXdX/VLvAH);whiteSpace=wrap;html=1;labelPosition=center;verticalLabelPosition=bottom;align=center;verticalAlign=top;" vertex="1" parent="1">
          <mxGeometry x="998" y="982" width="30" height="30" as="geometry" />
      </mxCell>
    </object><object id="140282356140352" label="U([116.05000000000001,251.2])">
      <mxCell style="rounded=1;whiteSpace=wrap;html=1;labelPosition=center;verticalLabelPosition=top;align=center;verticalAlign=bottom;" vertex="1" parent="1">
          <mxGeometry x="1302" y="826" width="30" height="30" as="geometry" />
      </mxCell>
    </object><object id="140282356140304" label="U([50.41,80.785))">
      <mxCell style="rounded=1;whiteSpace=wrap;html=1;labelPosition=center;verticalLabelPosition=top;align=center;verticalAlign=bottom;" vertex="1" parent="1">
          <mxGeometry x="1309" y="844" width="30" height="30" as="geometry" />
      </mxCell>
    </object><object id="140282356140256" label="U([80.785,116.05000000000001))">
      <mxCell style="rounded=1;whiteSpace=wrap;html=1;labelPosition=center;verticalLabelPosition=top;align=center;verticalAlign=bottom;" vertex="1" parent="1">
          <mxGeometry x="1316" y="862" width="30" height="30" as="geometry" />
      </mxCell>
    </object><object id="140282356141888" label="DetermSumUnit">
      <mxCell style="shape=stencil(tZXdboQgEIWfhttGISa7l41t34PqWMmyYID96dsXRVNBZXeNJsaEGfw4mZmDiOS6pg0gnNSIfCCM0ySxb7u+BWuqGyiMC1bsDqULa6PkCW6sND2AiRoUM22WfKLk3e5pH5IXUghLYFJoLzPKWxhlwn6b3B2sP/vXWzWWfwYDqlfoogh/PY99y/YBpzvp9bGD+s31bgf2Fad7NW4zcLoeS3IbWRpukn/T4vSj5EWUs2KAc9ZoeDDyoRlDs85qWjiZ5JVUEJGk6RUi5asY5871kU3ja8HK/78ecLw3DW03ThJD+iyvo1JlwZRlMfaA4EwsIw5PIXwVqT+SA/EVFYdXEF1vF+o0FH5NZx64RoE2dm626t3smMdrNrFKUDXPKkffKcfoCStL2n02MVMXdX/VLvAH);whiteSpace=wrap;html=1;labelPosition=center;verticalLabelPosition=bottom;align=center;verticalAlign=top;" vertex="1" parent="1">
          <mxGeometry x="1007" y="1010" width="30" height="30" as="geometry" />
      </mxCell>
    </object><object id="140282356141552" label="U([17.795,36.04])">
      <mxCell style="rounded=1;whiteSpace=wrap;html=1;labelPosition=center;verticalLabelPosition=top;align=center;verticalAlign=bottom;" vertex="1" parent="1">
          <mxGeometry x="1323" y="880" width="30" height="30" as="geometry" />
      </mxCell>
    </object><object id="140282356141504" label="U([7.93,12.625))">
      <mxCell style="rounded=1;whiteSpace=wrap;html=1;labelPosition=center;verticalLabelPosition=top;align=center;verticalAlign=bottom;" vertex="1" parent="1">
          <mxGeometry x="1329" y="899" width="30" height="30" as="geometry" />
      </mxCell>
    </object><object id="140282356166960" label="U([12.625,17.795))">
      <mxCell style="rounded=1;whiteSpace=wrap;html=1;labelPosition=center;verticalLabelPosition=top;align=center;verticalAlign=bottom;" vertex="1" parent="1">
          <mxGeometry x="1335" y="917" width="30" height="30" as="geometry" />
      </mxCell>
    </object><object id="140282356141984" label="DetermSumUnit">
      <mxCell style="shape=stencil(tZXdboQgEIWfhttGISa7l41t34PqWMmyYID96dsXRVNBZXeNJsaEGfw4mZmDiOS6pg0gnNSIfCCM0ySxb7u+BWuqGyiMC1bsDqULa6PkCW6sND2AiRoUM22WfKLk3e5pH5IXUghLYFJoLzPKWxhlwn6b3B2sP/vXWzWWfwYDqlfoogh/PY99y/YBpzvp9bGD+s31bgf2Fad7NW4zcLoeS3IbWRpukn/T4vSj5EWUs2KAc9ZoeDDyoRlDs85qWjiZ5JVUEJGk6RUi5asY5871kU3ja8HK/78ecLw3DW03ThJD+iyvo1JlwZRlMfaA4EwsIw5PIXwVqT+SA/EVFYdXEF1vF+o0FH5NZx64RoE2dm626t3smMdrNrFKUDXPKkffKcfoCStL2n02MVMXdX/VLvAH);whiteSpace=wrap;html=1;labelPosition=center;verticalLabelPosition=bottom;align=center;verticalAlign=top;" vertex="1" parent="1">
          <mxGeometry x="1014" y="1038" width="30" height="30" as="geometry" />
      </mxCell>
    </object><object id="140282356167680" label="U([0.14945,0.2226])">
      <mxCell style="rounded=1;whiteSpace=wrap;html=1;labelPosition=center;verticalLabelPosition=top;align=center;verticalAlign=bottom;" vertex="1" parent="1">
          <mxGeometry x="1340" y="936" width="30" height="30" as="geometry" />
      </mxCell>
    </object><object id="140282356167632" label="U([0.07117,0.11345))">
      <mxCell style="rounded=1;whiteSpace=wrap;html=1;labelPosition=center;verticalLabelPosition=top;align=center;verticalAlign=bottom;" vertex="1" parent="1">
          <mxGeometry x="1344" y="955" width="30" height="30" as="geometry" />
      </mxCell>
    </object><object id="140282356167776" label="U([0.11345,0.14945))">
      <mxCell style="rounded=1;whiteSpace=wrap;html=1;labelPosition=center;verticalLabelPosition=top;align=center;verticalAlign=bottom;" vertex="1" parent="1">
          <mxGeometry x="1348" y="974" width="30" height="30" as="geometry" />
      </mxCell>
    </object><object id="140282356169504" label="DetermSumUnit">
      <mxCell style="shape=stencil(tZXdboQgEIWfhttGISa7l41t34PqWMmyYID96dsXRVNBZXeNJsaEGfw4mZmDiOS6pg0gnNSIfCCM0ySxb7u+BWuqGyiMC1bsDqULa6PkCW6sND2AiRoUM22WfKLk3e5pH5IXUghLYFJoLzPKWxhlwn6b3B2sP/vXWzWWfwYDqlfoogh/PY99y/YBpzvp9bGD+s31bgf2Fad7NW4zcLoeS3IbWRpukn/T4vSj5EWUs2KAc9ZoeDDyoRlDs85qWjiZ5JVUEJGk6RUi5asY5871kU3ja8HK/78ecLw3DW03ThJD+iyvo1JlwZRlMfaA4EwsIw5PIXwVqT+SA/EVFYdXEF1vF+o0FH5NZx64RoE2dm626t3smMdrNrFKUDXPKkffKcfoCStL2n02MVMXdX/VLvAH);whiteSpace=wrap;html=1;labelPosition=center;verticalLabelPosition=bottom;align=center;verticalAlign=top;" vertex="1" parent="1">
          <mxGeometry x="1018" y="1067" width="30" height="30" as="geometry" />
      </mxCell>
    </object><object id="140282356169168" label="U([0.32794999999999996,0.6638])">
      <mxCell style="rounded=1;whiteSpace=wrap;html=1;labelPosition=center;verticalLabelPosition=top;align=center;verticalAlign=bottom;" vertex="1" parent="1">
          <mxGeometry x="1351" y="993" width="30" height="30" as="geometry" />
      </mxCell>
    </object><object id="140282356169120" label="U([0.1565,0.24375))">
      <mxCell style="rounded=1;whiteSpace=wrap;html=1;labelPosition=center;verticalLabelPosition=top;align=center;verticalAlign=bottom;" vertex="1" parent="1">
          <mxGeometry x="1354" y="1012" width="30" height="30" as="geometry" />
      </mxCell>
    </object><object id="140282356169264" label="U([0.24375,0.32794999999999996))">
      <mxCell style="rounded=1;whiteSpace=wrap;html=1;labelPosition=center;verticalLabelPosition=top;align=center;verticalAlign=bottom;" vertex="1" parent="1">
          <mxGeometry x="1356" y="1031" width="30" height="30" as="geometry" />
      </mxCell>
    </object><object id="140282356140208" label="DetermSumUnit">
      <mxCell style="shape=stencil(tZXdboQgEIWfhttGISa7l41t34PqWMmyYID96dsXRVNBZXeNJsaEGfw4mZmDiOS6pg0gnNSIfCCM0ySxb7u+BWuqGyiMC1bsDqULa6PkCW6sND2AiRoUM22WfKLk3e5pH5IXUghLYFJoLzPKWxhlwn6b3B2sP/vXWzWWfwYDqlfoogh/PY99y/YBpzvp9bGD+s31bgf2Fad7NW4zcLoeS3IbWRpukn/T4vSj5EWUs2KAc9ZoeDDyoRlDs85qWjiZ5JVUEJGk6RUi5asY5871kU3ja8HK/78ecLw3DW03ThJD+iyvo1JlwZRlMfaA4EwsIw5PIXwVqT+SA/EVFYdXEF1vF+o0FH5NZx64RoE2dm626t3smMdrNrFKUDXPKkffKcfoCStL2n02MVMXdX/VLvAH);whiteSpace=wrap;html=1;labelPosition=center;verticalLabelPosition=bottom;align=center;verticalAlign=top;" vertex="1" parent="1">
          <mxGeometry x="1360" y="1089" width="30" height="30" as="geometry" />
      </mxCell>
    </object><object id="140282356141792" label="U([30.995,49.54])">
      <mxCell style="rounded=1;whiteSpace=wrap;html=1;labelPosition=center;verticalLabelPosition=top;align=center;verticalAlign=bottom;" vertex="1" parent="1">
          <mxGeometry x="1358" y="1050" width="30" height="30" as="geometry" />
      </mxCell>
    </object><object id="140282356141456" label="U([12.02,20.17))">
      <mxCell style="rounded=1;whiteSpace=wrap;html=1;labelPosition=center;verticalLabelPosition=top;align=center;verticalAlign=bottom;" vertex="1" parent="1">
          <mxGeometry x="1359" y="1070" width="30" height="30" as="geometry" />
      </mxCell>
    </object><object id="140282356141120" label="U([20.17,30.995))">
      <mxCell style="rounded=1;whiteSpace=wrap;html=1;labelPosition=center;verticalLabelPosition=top;align=center;verticalAlign=bottom;" vertex="1" parent="1">
          <mxGeometry x="1020" y="1096" width="30" height="30" as="geometry" />
      </mxCell>
    </object><object id="dfd19c45f13bb1004f0a4d5a67ca1366" label="" source="140282356479312" target="140282356355520">
      <mxCell style="endArrow=classic;html=1;rounded=0;" edge="1" parent="1" source="140282356479312" target="140282356355520">
          <mxGeometry relative="1" as="geometry" />
      </mxCell>
    </object><object id="10db5086965a7c59e1ade704a3790f32" label="" source="140282356479312" target="140282356356912">
      <mxCell style="endArrow=classic;html=1;rounded=0;" edge="1" parent="1" source="140282356479312" target="140282356356912">
          <mxGeometry relative="1" as="geometry" />
      </mxCell>
    </object><object id="1471163a1e63057f121a542ff274ca9e" label="" source="140282356479312" target="140282356357104">
      <mxCell style="endArrow=classic;html=1;rounded=0;" edge="1" parent="1" source="140282356479312" target="140282356357104">
          <mxGeometry relative="1" as="geometry" />
      </mxCell>
    </object><object id="18c3647a0fc5b8695f31ffd1b456e104" label="" source="140282356479312" target="140282356358976">
      <mxCell style="endArrow=classic;html=1;rounded=0;" edge="1" parent="1" source="140282356479312" target="140282356358976">
          <mxGeometry relative="1" as="geometry" />
      </mxCell>
    </object><object id="84aa46be2b88cc58058744d14a484bd3" label="" source="140282356479312" target="140282356358928">
      <mxCell style="endArrow=classic;html=1;rounded=0;" edge="1" parent="1" source="140282356479312" target="140282356358928">
          <mxGeometry relative="1" as="geometry" />
      </mxCell>
    </object><object id="3094b0b335afff2eee1e8d55e7d070b3" label="" source="140282356479312" target="140282356000848">
      <mxCell style="endArrow=classic;html=1;rounded=0;" edge="1" parent="1" source="140282356479312" target="140282356000848">
          <mxGeometry relative="1" as="geometry" />
      </mxCell>
    </object><object id="5876fe2143156f3c97cb880dbb6ffee7" label="" source="140282356479312" target="140282356001712">
      <mxCell style="endArrow=classic;html=1;rounded=0;" edge="1" parent="1" source="140282356479312" target="140282356001712">
          <mxGeometry relative="1" as="geometry" />
      </mxCell>
    </object><object id="f271a4aafbdaa6f490731f79b3e44254" label="" source="140282356479312" target="140282356002480">
      <mxCell style="endArrow=classic;html=1;rounded=0;" edge="1" parent="1" source="140282356479312" target="140282356002480">
          <mxGeometry relative="1" as="geometry" />
      </mxCell>
    </object><object id="1dbd98621e16d44aeba49299d0786149" label="" source="140282356479312" target="140282356029088">
      <mxCell style="endArrow=classic;html=1;rounded=0;" edge="1" parent="1" source="140282356479312" target="140282356029088">
          <mxGeometry relative="1" as="geometry" />
      </mxCell>
    </object><object id="5346ee8897589ab534d2743d438fbbab" label="" source="140282356479312" target="140282356030912">
      <mxCell style="endArrow=classic;html=1;rounded=0;" edge="1" parent="1" source="140282356479312" target="140282356030912">
          <mxGeometry relative="1" as="geometry" />
      </mxCell>
    </object><object id="b632bc62e73269b2cbff900f693a0628" label="" source="140282356479312" target="140282356031392">
      <mxCell style="endArrow=classic;html=1;rounded=0;" edge="1" parent="1" source="140282356479312" target="140282356031392">
          <mxGeometry relative="1" as="geometry" />
      </mxCell>
    </object><object id="e621e48fa1df0d593a742ce0f0045991" label="" source="140282356479312" target="140282356030768">
      <mxCell style="endArrow=classic;html=1;rounded=0;" edge="1" parent="1" source="140282356479312" target="140282356030768">
          <mxGeometry relative="1" as="geometry" />
      </mxCell>
    </object><object id="86dd240a0ee37efe704999dcf48ab589" label="" source="140282356479312" target="140282356027648">
      <mxCell style="endArrow=classic;html=1;rounded=0;" edge="1" parent="1" source="140282356479312" target="140282356027648">
          <mxGeometry relative="1" as="geometry" />
      </mxCell>
    </object><object id="5a99065f0c43fa28f1e511b4547bd47e" label="" source="140282356479312" target="140282356028320">
      <mxCell style="endArrow=classic;html=1;rounded=0;" edge="1" parent="1" source="140282356479312" target="140282356028320">
          <mxGeometry relative="1" as="geometry" />
      </mxCell>
    </object><object id="6beb7b058bb4137f37a2de41402ac40e" label="" source="140282356479312" target="140282355998784">
      <mxCell style="endArrow=classic;html=1;rounded=0;" edge="1" parent="1" source="140282356479312" target="140282355998784">
          <mxGeometry relative="1" as="geometry" />
      </mxCell>
    </object><object id="3c003130bfd81e539b8138073f1ddf53" label="" source="140282356479312" target="140282356356672">
      <mxCell style="endArrow=classic;html=1;rounded=0;" edge="1" parent="1" source="140282356479312" target="140282356356672">
          <mxGeometry relative="1" as="geometry" />
      </mxCell>
    </object><object id="fdaed4fdcef58b698c189b581e0bfeb0" label="" source="140282356479312" target="140282356071248">
      <mxCell style="endArrow=classic;html=1;rounded=0;" edge="1" parent="1" source="140282356479312" target="140282356071248">
          <mxGeometry relative="1" as="geometry" />
      </mxCell>
    </object><object id="e7c6369133f83f45acdf0a3bf689fd55" label="" source="140282356479312" target="140282356072208">
      <mxCell style="endArrow=classic;html=1;rounded=0;" edge="1" parent="1" source="140282356479312" target="140282356072208">
          <mxGeometry relative="1" as="geometry" />
      </mxCell>
    </object><object id="4dabb987a257953f010afda9ed5c9da4" label="" source="140282356479312" target="140282356102240">
      <mxCell style="endArrow=classic;html=1;rounded=0;" edge="1" parent="1" source="140282356479312" target="140282356102240">
          <mxGeometry relative="1" as="geometry" />
      </mxCell>
    </object><object id="5da1f6dabc78cf285f7916c4d95dc3d8" label="" source="140282356479312" target="140282356104112">
      <mxCell style="endArrow=classic;html=1;rounded=0;" edge="1" parent="1" source="140282356479312" target="140282356104112">
          <mxGeometry relative="1" as="geometry" />
      </mxCell>
    </object><object id="3eacbbd2d73f92d227264382a12f5ed2" label="" source="140282356479312" target="140282356103536">
      <mxCell style="endArrow=classic;html=1;rounded=0;" edge="1" parent="1" source="140282356479312" target="140282356103536">
          <mxGeometry relative="1" as="geometry" />
      </mxCell>
    </object><object id="af4c2231ad51a4da5c2d491244baec4e" label="" source="140282356479312" target="140282356101424">
      <mxCell style="endArrow=classic;html=1;rounded=0;" edge="1" parent="1" source="140282356479312" target="140282356101424">
          <mxGeometry relative="1" as="geometry" />
      </mxCell>
    </object><object id="b98bf9369e5447b58ba188dfdeefce24" label="" source="140282356479312" target="140282356070576">
      <mxCell style="endArrow=classic;html=1;rounded=0;" edge="1" parent="1" source="140282356479312" target="140282356070576">
          <mxGeometry relative="1" as="geometry" />
      </mxCell>
    </object><object id="5f4d807ba662a1bb929cbae2fd4cc4e6" label="" source="140282356479312" target="140282356356576">
      <mxCell style="endArrow=classic;html=1;rounded=0;" edge="1" parent="1" source="140282356479312" target="140282356356576">
          <mxGeometry relative="1" as="geometry" />
      </mxCell>
    </object><object id="deed0ed63e85ec20c1f608c7aaf4034b" label="" source="140282356479312" target="140282356001520">
      <mxCell style="endArrow=classic;html=1;rounded=0;" edge="1" parent="1" source="140282356479312" target="140282356001520">
          <mxGeometry relative="1" as="geometry" />
      </mxCell>
    </object><object id="a64b118fe4835ad2aed3e4f8f34b52f8" label="" source="140282356479312" target="140282356029184">
      <mxCell style="endArrow=classic;html=1;rounded=0;" edge="1" parent="1" source="140282356479312" target="140282356029184">
          <mxGeometry relative="1" as="geometry" />
      </mxCell>
    </object><object id="3cde86e26c594c402b586ec59e935e2d" label="" source="140282356479312" target="140282356140064">
      <mxCell style="endArrow=classic;html=1;rounded=0;" edge="1" parent="1" source="140282356479312" target="140282356140064">
          <mxGeometry relative="1" as="geometry" />
      </mxCell>
    </object><object id="9194158523c00ee7586a587185c4a942" label="" source="140282356479312" target="140282356141888">
      <mxCell style="endArrow=classic;html=1;rounded=0;" edge="1" parent="1" source="140282356479312" target="140282356141888">
          <mxGeometry relative="1" as="geometry" />
      </mxCell>
    </object><object id="aca7bf63d7500187ce4be13ada61f5f9" label="" source="140282356479312" target="140282356141984">
      <mxCell style="endArrow=classic;html=1;rounded=0;" edge="1" parent="1" source="140282356479312" target="140282356141984">
          <mxGeometry relative="1" as="geometry" />
      </mxCell>
    </object><object id="1914a12ccf00287536c8d8f39470bf29" label="" source="140282356479312" target="140282356169504">
      <mxCell style="endArrow=classic;html=1;rounded=0;" edge="1" parent="1" source="140282356479312" target="140282356169504">
          <mxGeometry relative="1" as="geometry" />
      </mxCell>
    </object><object id="ad3953933026d950ef8ce988f04d248d" label="" source="140282356479312" target="140282356140208">
      <mxCell style="endArrow=classic;html=1;rounded=0;" edge="1" parent="1" source="140282356479312" target="140282356140208">
          <mxGeometry relative="1" as="geometry" />
      </mxCell>
    </object><object id="5c44a3965c7a993cf904d06a1acfee82" label="1.0" source="140282356481520" target="140282356479312">
      <mxCell style="endArrow=classic;html=1;rounded=0;" edge="1" parent="1" source="140282356481520" target="140282356479312">
          <mxGeometry relative="1" as="geometry" />
      </mxCell>
    </object><object id="6b40b44e049477f9c93e23bffe70ad5d" label="0.68" source="140282356355520" target="140282356355904">
      <mxCell style="endArrow=classic;html=1;rounded=0;" edge="1" parent="1" source="140282356355520" target="140282356355904">
          <mxGeometry relative="1" as="geometry" />
      </mxCell>
    </object><object id="b846aeaae183f6c3ca521a7b553fdc8b" label="0.32" source="140282356355520" target="140282356355856">
      <mxCell style="endArrow=classic;html=1;rounded=0;" edge="1" parent="1" source="140282356355520" target="140282356355856">
          <mxGeometry relative="1" as="geometry" />
      </mxCell>
    </object><object id="b9c78bd0230c83d75563f915f4075a4f" label="0.79" source="140282356356912" target="140282356356768">
      <mxCell style="endArrow=classic;html=1;rounded=0;" edge="1" parent="1" source="140282356356912" target="140282356356768">
          <mxGeometry relative="1" as="geometry" />
      </mxCell>
    </object><object id="b25b997054d89bf470a36718dcef7e31" label="0.21" source="140282356356912" target="140282356357008">
      <mxCell style="endArrow=classic;html=1;rounded=0;" edge="1" parent="1" source="140282356356912" target="140282356357008">
          <mxGeometry relative="1" as="geometry" />
      </mxCell>
    </object><object id="30b704889d4ed0b3111a737e9009a783" label="0.19" source="140282356357104" target="140282356357440">
      <mxCell style="endArrow=classic;html=1;rounded=0;" edge="1" parent="1" source="140282356357104" target="140282356357440">
          <mxGeometry relative="1" as="geometry" />
      </mxCell>
    </object><object id="df0176e0f07738bd761a2d9480100e36" label="0.22" source="140282356357104" target="140282356356240">
      <mxCell style="endArrow=classic;html=1;rounded=0;" edge="1" parent="1" source="140282356357104" target="140282356356240">
          <mxGeometry relative="1" as="geometry" />
      </mxCell>
    </object><object id="3006f8b051194cb4004da67b4d5eccc4" label="0.59" source="140282356357104" target="140282356357344">
      <mxCell style="endArrow=classic;html=1;rounded=0;" edge="1" parent="1" source="140282356357104" target="140282356357344">
          <mxGeometry relative="1" as="geometry" />
      </mxCell>
    </object><object id="bb856b1db68786ea78e69f968ad920a6" label="0.82" source="140282356358976" target="140282356358688">
      <mxCell style="endArrow=classic;html=1;rounded=0;" edge="1" parent="1" source="140282356358976" target="140282356358688">
          <mxGeometry relative="1" as="geometry" />
      </mxCell>
    </object><object id="93b582c051eb1f2f34941e50d6f2bf45" label="0.18" source="140282356358976" target="140282356358640">
      <mxCell style="endArrow=classic;html=1;rounded=0;" edge="1" parent="1" source="140282356358976" target="140282356358640">
          <mxGeometry relative="1" as="geometry" />
      </mxCell>
    </object><object id="9132309440ada235874c46208bfcb83f" label="0.8" source="140282356358928" target="140282355999696">
      <mxCell style="endArrow=classic;html=1;rounded=0;" edge="1" parent="1" source="140282356358928" target="140282355999696">
          <mxGeometry relative="1" as="geometry" />
      </mxCell>
    </object><object id="ea59a407aef379002fa8c203d96ad09b" label="0.2" source="140282356358928" target="140282355999840">
      <mxCell style="endArrow=classic;html=1;rounded=0;" edge="1" parent="1" source="140282356358928" target="140282355999840">
          <mxGeometry relative="1" as="geometry" />
      </mxCell>
    </object><object id="f8f6b1bb2a7492e9729d214e2b8ba831" label="0.28" source="140282356001712" target="140282356001856">
      <mxCell style="endArrow=classic;html=1;rounded=0;" edge="1" parent="1" source="140282356001712" target="140282356001856">
          <mxGeometry relative="1" as="geometry" />
      </mxCell>
    </object><object id="9c1fc2282c7f44f32e8bcf6307328f0b" label="0.18" source="140282356001712" target="140282356001808">
      <mxCell style="endArrow=classic;html=1;rounded=0;" edge="1" parent="1" source="140282356001712" target="140282356001808">
          <mxGeometry relative="1" as="geometry" />
      </mxCell>
    </object><object id="71461fbf49e2be8e7c89d7fcf67a65f2" label="0.53" source="140282356001712" target="140282356001952">
      <mxCell style="endArrow=classic;html=1;rounded=0;" edge="1" parent="1" source="140282356001712" target="140282356001952">
          <mxGeometry relative="1" as="geometry" />
      </mxCell>
    </object><object id="10f10b29dce47521aed8902d90c11273" label="0.79" source="140282356002480" target="140282356027840">
      <mxCell style="endArrow=classic;html=1;rounded=0;" edge="1" parent="1" source="140282356002480" target="140282356027840">
          <mxGeometry relative="1" as="geometry" />
      </mxCell>
    </object><object id="2abb77a085dd7b7a467590cb511aac30" label="0.21" source="140282356002480" target="140282356027792">
      <mxCell style="endArrow=classic;html=1;rounded=0;" edge="1" parent="1" source="140282356002480" target="140282356027792">
          <mxGeometry relative="1" as="geometry" />
      </mxCell>
    </object><object id="533151f08db06b22d9145256b2f5fe70" label="0.51" source="140282356029088" target="140282356029232">
      <mxCell style="endArrow=classic;html=1;rounded=0;" edge="1" parent="1" source="140282356029088" target="140282356029232">
          <mxGeometry relative="1" as="geometry" />
      </mxCell>
    </object><object id="49e50609c8e931fcaf037d22a6e93aec" label="0.31" source="140282356029088" target="140282356029328">
      <mxCell style="endArrow=classic;html=1;rounded=0;" edge="1" parent="1" source="140282356029088" target="140282356029328">
          <mxGeometry relative="1" as="geometry" />
      </mxCell>
    </object><object id="3fcfd4ca2cd5bec3ae5fe1139fd47fb7" label="0.18" source="140282356029088" target="140282356029520">
      <mxCell style="endArrow=classic;html=1;rounded=0;" edge="1" parent="1" source="140282356029088" target="140282356029520">
          <mxGeometry relative="1" as="geometry" />
      </mxCell>
    </object><object id="8d6b8d3561f7494efcc8a8e28ab6a281" label="0.54" source="140282356030912" target="140282356030624">
      <mxCell style="endArrow=classic;html=1;rounded=0;" edge="1" parent="1" source="140282356030912" target="140282356030624">
          <mxGeometry relative="1" as="geometry" />
      </mxCell>
    </object><object id="b3884fd51f0182455f3bf8e07db007ae" label="0.28" source="140282356030912" target="140282356030528">
      <mxCell style="endArrow=classic;html=1;rounded=0;" edge="1" parent="1" source="140282356030912" target="140282356030528">
          <mxGeometry relative="1" as="geometry" />
      </mxCell>
    </object><object id="3ad7e815d13d359b01e96cc79cadc618" label="0.18" source="140282356030912" target="140282356031008">
      <mxCell style="endArrow=classic;html=1;rounded=0;" edge="1" parent="1" source="140282356030912" target="140282356031008">
          <mxGeometry relative="1" as="geometry" />
      </mxCell>
    </object><object id="2111de72f5d32234a2082eaee634d599" label="0.81" source="140282356031392" target="140282356069040">
      <mxCell style="endArrow=classic;html=1;rounded=0;" edge="1" parent="1" source="140282356031392" target="140282356069040">
          <mxGeometry relative="1" as="geometry" />
      </mxCell>
    </object><object id="a72e292bdd54d9cb47c028c0208b3cda" label="0.19" source="140282356031392" target="140282356068992">
      <mxCell style="endArrow=classic;html=1;rounded=0;" edge="1" parent="1" source="140282356031392" target="140282356068992">
          <mxGeometry relative="1" as="geometry" />
      </mxCell>
    </object><object id="7b097eac5abc0efcad2a3178963d82b5" label="0.25" source="140282356030768" target="140282356030816">
      <mxCell style="endArrow=classic;html=1;rounded=0;" edge="1" parent="1" source="140282356030768" target="140282356030816">
          <mxGeometry relative="1" as="geometry" />
      </mxCell>
    </object><object id="210f92d92be44bcd1a275166cda2f6a1" label="0.19" source="140282356030768" target="140282356030480">
      <mxCell style="endArrow=classic;html=1;rounded=0;" edge="1" parent="1" source="140282356030768" target="140282356030480">
          <mxGeometry relative="1" as="geometry" />
      </mxCell>
    </object><object id="ef7f7d6853f0280e4985c4f90638b2a1" label="0.56" source="140282356030768" target="140282356030144">
      <mxCell style="endArrow=classic;html=1;rounded=0;" edge="1" parent="1" source="140282356030768" target="140282356030144">
          <mxGeometry relative="1" as="geometry" />
      </mxCell>
    </object><object id="961621e9f6215d9393d81db3401a036d" label="0.22" source="140282356027648" target="140282356028128">
      <mxCell style="endArrow=classic;html=1;rounded=0;" edge="1" parent="1" source="140282356027648" target="140282356028128">
          <mxGeometry relative="1" as="geometry" />
      </mxCell>
    </object><object id="8eff964d4692c6717d1362217049e752" label="0.21" source="140282356027648" target="140282356027984">
      <mxCell style="endArrow=classic;html=1;rounded=0;" edge="1" parent="1" source="140282356027648" target="140282356027984">
          <mxGeometry relative="1" as="geometry" />
      </mxCell>
    </object><object id="02936e344677a9bb0056eee276db7e80" label="0.56" source="140282356027648" target="140282356001904">
      <mxCell style="endArrow=classic;html=1;rounded=0;" edge="1" parent="1" source="140282356027648" target="140282356001904">
          <mxGeometry relative="1" as="geometry" />
      </mxCell>
    </object><object id="7e2a2e4fda5b516c4c3015386dfefbf6" label="0.25" source="140282356028320" target="140282356001424">
      <mxCell style="endArrow=classic;html=1;rounded=0;" edge="1" parent="1" source="140282356028320" target="140282356001424">
          <mxGeometry relative="1" as="geometry" />
      </mxCell>
    </object><object id="1a1f9d76fadc7020ec6db5f41da8c45d" label="0.18" source="140282356028320" target="140282356001280">
      <mxCell style="endArrow=classic;html=1;rounded=0;" edge="1" parent="1" source="140282356028320" target="140282356001280">
          <mxGeometry relative="1" as="geometry" />
      </mxCell>
    </object><object id="b7ecc07ab5cb7a81a2aa843a82866d41" label="0.57" source="140282356028320" target="140282356001328">
      <mxCell style="endArrow=classic;html=1;rounded=0;" edge="1" parent="1" source="140282356028320" target="140282356001328">
          <mxGeometry relative="1" as="geometry" />
      </mxCell>
    </object><object id="c14f20303d149340454f0588d9cf6545" label="0.2" source="140282355998784" target="140282356358592">
      <mxCell style="endArrow=classic;html=1;rounded=0;" edge="1" parent="1" source="140282355998784" target="140282356358592">
          <mxGeometry relative="1" as="geometry" />
      </mxCell>
    </object><object id="88931077f7ad7bf283eef6cedbbc4cbf" label="0.22" source="140282355998784" target="140282356358112">
      <mxCell style="endArrow=classic;html=1;rounded=0;" edge="1" parent="1" source="140282355998784" target="140282356358112">
          <mxGeometry relative="1" as="geometry" />
      </mxCell>
    </object><object id="e67776f5d8496b87f5092a2efdccc392" label="0.59" source="140282355998784" target="140282356358544">
      <mxCell style="endArrow=classic;html=1;rounded=0;" edge="1" parent="1" source="140282355998784" target="140282356358544">
          <mxGeometry relative="1" as="geometry" />
      </mxCell>
    </object><object id="75d0b061cf8e3dad5b9a990aba29bcb5" label="0.19" source="140282356356672" target="140282356069280">
      <mxCell style="endArrow=classic;html=1;rounded=0;" edge="1" parent="1" source="140282356356672" target="140282356069280">
          <mxGeometry relative="1" as="geometry" />
      </mxCell>
    </object><object id="e32fd31e80e88f25ce7025db049a65ce" label="0.2" source="140282356356672" target="140282356069616">
      <mxCell style="endArrow=classic;html=1;rounded=0;" edge="1" parent="1" source="140282356356672" target="140282356069616">
          <mxGeometry relative="1" as="geometry" />
      </mxCell>
    </object><object id="6528d8d27bc2cf8e0dd27945fd2f37e1" label="0.61" source="140282356356672" target="140282356070240">
      <mxCell style="endArrow=classic;html=1;rounded=0;" edge="1" parent="1" source="140282356356672" target="140282356070240">
          <mxGeometry relative="1" as="geometry" />
      </mxCell>
    </object><object id="87ad35aefcb860240798da8c887a007c" label="0.74" source="140282356071248" target="140282356070960">
      <mxCell style="endArrow=classic;html=1;rounded=0;" edge="1" parent="1" source="140282356071248" target="140282356070960">
          <mxGeometry relative="1" as="geometry" />
      </mxCell>
    </object><object id="f6bb504ed6ca2767f99329014a9c6738" label="0.26" source="140282356071248" target="140282356070912">
      <mxCell style="endArrow=classic;html=1;rounded=0;" edge="1" parent="1" source="140282356071248" target="140282356070912">
          <mxGeometry relative="1" as="geometry" />
      </mxCell>
    </object><object id="714281b5c348dcf4e45ac324a054f409" label="0.72" source="140282356072208" target="140282356101184">
      <mxCell style="endArrow=classic;html=1;rounded=0;" edge="1" parent="1" source="140282356072208" target="140282356101184">
          <mxGeometry relative="1" as="geometry" />
      </mxCell>
    </object><object id="1f65dda8390a7e0ab92471d85bceb714" label="0.28" source="140282356072208" target="140282356101376">
      <mxCell style="endArrow=classic;html=1;rounded=0;" edge="1" parent="1" source="140282356072208" target="140282356101376">
          <mxGeometry relative="1" as="geometry" />
      </mxCell>
    </object><object id="708d1d16cfb08ad4913b740d1e2a61d7" label="0.19" source="140282356102240" target="140282356102528">
      <mxCell style="endArrow=classic;html=1;rounded=0;" edge="1" parent="1" source="140282356102240" target="140282356102528">
          <mxGeometry relative="1" as="geometry" />
      </mxCell>
    </object><object id="ca83298a2dbc92de1dfb2db3dfaa583b" label="0.18" source="140282356102240" target="140282356102480">
      <mxCell style="endArrow=classic;html=1;rounded=0;" edge="1" parent="1" source="140282356102240" target="140282356102480">
          <mxGeometry relative="1" as="geometry" />
      </mxCell>
    </object><object id="5c10cab09498de4921a018778aec05ac" label="0.41" source="140282356102240" target="140282356102384">
      <mxCell style="endArrow=classic;html=1;rounded=0;" edge="1" parent="1" source="140282356102240" target="140282356102384">
          <mxGeometry relative="1" as="geometry" />
      </mxCell>
    </object><object id="f58985a37a67d238a0bbb509722699a2" label="0.23" source="140282356102240" target="140282356103008">
      <mxCell style="endArrow=classic;html=1;rounded=0;" edge="1" parent="1" source="140282356102240" target="140282356103008">
          <mxGeometry relative="1" as="geometry" />
      </mxCell>
    </object><object id="2b90ee3cc94074cc905f03d5734d4d3c" label="0.24" source="140282356104112" target="140282356103920">
      <mxCell style="endArrow=classic;html=1;rounded=0;" edge="1" parent="1" source="140282356104112" target="140282356103920">
          <mxGeometry relative="1" as="geometry" />
      </mxCell>
    </object><object id="bd7e8b6ae2ce1595a8404b949464e7a7" label="0.2" source="140282356104112" target="140282356103872">
      <mxCell style="endArrow=classic;html=1;rounded=0;" edge="1" parent="1" source="140282356104112" target="140282356103872">
          <mxGeometry relative="1" as="geometry" />
      </mxCell>
    </object><object id="8ea8b0d6101a412964d56a3241bc3b63" label="0.57" source="140282356104112" target="140282356104208">
      <mxCell style="endArrow=classic;html=1;rounded=0;" edge="1" parent="1" source="140282356104112" target="140282356104208">
          <mxGeometry relative="1" as="geometry" />
      </mxCell>
    </object><object id="bf9135f0bd66ef0c11b356aab377c164" label="0.82" source="140282356103536" target="140282356103824">
      <mxCell style="endArrow=classic;html=1;rounded=0;" edge="1" parent="1" source="140282356103536" target="140282356103824">
          <mxGeometry relative="1" as="geometry" />
      </mxCell>
    </object><object id="ad14e2fed216400eebcbe81c7669a3c3" label="0.18" source="140282356103536" target="140282356103632">
      <mxCell style="endArrow=classic;html=1;rounded=0;" edge="1" parent="1" source="140282356103536" target="140282356103632">
          <mxGeometry relative="1" as="geometry" />
      </mxCell>
    </object><object id="5e2576bb55dae3ba32f621f97df5e8c6" label="0.35" source="140282356101424" target="140282356072304">
      <mxCell style="endArrow=classic;html=1;rounded=0;" edge="1" parent="1" source="140282356101424" target="140282356072304">
          <mxGeometry relative="1" as="geometry" />
      </mxCell>
    </object><object id="b62a01800c1d16393d3e48d2622aa3cc" label="0.18" source="140282356101424" target="140282356072352">
      <mxCell style="endArrow=classic;html=1;rounded=0;" edge="1" parent="1" source="140282356101424" target="140282356072352">
          <mxGeometry relative="1" as="geometry" />
      </mxCell>
    </object><object id="5312d1fc06ed82f01b59d0305acc6df4" label="0.47" source="140282356101424" target="140282356072160">
      <mxCell style="endArrow=classic;html=1;rounded=0;" edge="1" parent="1" source="140282356101424" target="140282356072160">
          <mxGeometry relative="1" as="geometry" />
      </mxCell>
    </object><object id="7df1d65766f2579a76fd3d57e476912a" label="0.8" source="140282356070576" target="140282356356864">
      <mxCell style="endArrow=classic;html=1;rounded=0;" edge="1" parent="1" source="140282356070576" target="140282356356864">
          <mxGeometry relative="1" as="geometry" />
      </mxCell>
    </object><object id="9c80754a83bbdc16c3aee822c3f8d5ca" label="0.2" source="140282356070576" target="140282356356624">
      <mxCell style="endArrow=classic;html=1;rounded=0;" edge="1" parent="1" source="140282356070576" target="140282356356624">
          <mxGeometry relative="1" as="geometry" />
      </mxCell>
    </object><object id="bf3dad3996e00f627cdb4081e985dee6" label="0.81" source="140282356356576" target="140282355999216">
      <mxCell style="endArrow=classic;html=1;rounded=0;" edge="1" parent="1" source="140282356356576" target="140282355999216">
          <mxGeometry relative="1" as="geometry" />
      </mxCell>
    </object><object id="ff373c86f44e6a3b9f4c13254bf64f18" label="0.19" source="140282356356576" target="140282355999168">
      <mxCell style="endArrow=classic;html=1;rounded=0;" edge="1" parent="1" source="140282356356576" target="140282355999168">
          <mxGeometry relative="1" as="geometry" />
      </mxCell>
    </object><object id="92bc04bf962bbcaca4b45b8a82d69fb5" label="0.79" source="140282356001520" target="140282356030096">
      <mxCell style="endArrow=classic;html=1;rounded=0;" edge="1" parent="1" source="140282356001520" target="140282356030096">
          <mxGeometry relative="1" as="geometry" />
      </mxCell>
    </object><object id="9419a7083c3f597f9b4f0ca58cc31a76" label="0.21" source="140282356001520" target="140282356028896">
      <mxCell style="endArrow=classic;html=1;rounded=0;" edge="1" parent="1" source="140282356001520" target="140282356028896">
          <mxGeometry relative="1" as="geometry" />
      </mxCell>
    </object><object id="13fb6953d3a850da0775ddc9af2abbeb" label="0.78" source="140282356029184" target="140282356138912">
      <mxCell style="endArrow=classic;html=1;rounded=0;" edge="1" parent="1" source="140282356029184" target="140282356138912">
          <mxGeometry relative="1" as="geometry" />
      </mxCell>
    </object><object id="4368ba651150828b7273101d48d513d3" label="0.22" source="140282356029184" target="140282356139056">
      <mxCell style="endArrow=classic;html=1;rounded=0;" edge="1" parent="1" source="140282356029184" target="140282356139056">
          <mxGeometry relative="1" as="geometry" />
      </mxCell>
    </object><object id="2ce33d15970aaeccbbec9f0085c7ec78" label="0.3" source="140282356140064" target="140282356140352">
      <mxCell style="endArrow=classic;html=1;rounded=0;" edge="1" parent="1" source="140282356140064" target="140282356140352">
          <mxGeometry relative="1" as="geometry" />
      </mxCell>
    </object><object id="4124903f35a89601ee5d8934cff5dbda" label="0.19" source="140282356140064" target="140282356140304">
      <mxCell style="endArrow=classic;html=1;rounded=0;" edge="1" parent="1" source="140282356140064" target="140282356140304">
          <mxGeometry relative="1" as="geometry" />
      </mxCell>
    </object><object id="d9728188ba1dde1d648171a3bfc4bd70" label="0.51" source="140282356140064" target="140282356140256">
      <mxCell style="endArrow=classic;html=1;rounded=0;" edge="1" parent="1" source="140282356140064" target="140282356140256">
          <mxGeometry relative="1" as="geometry" />
      </mxCell>
    </object><object id="771638c58b4e8573ee5f49fe98a551b3" label="0.28" source="140282356141888" target="140282356141552">
      <mxCell style="endArrow=classic;html=1;rounded=0;" edge="1" parent="1" source="140282356141888" target="140282356141552">
          <mxGeometry relative="1" as="geometry" />
      </mxCell>
    </object><object id="8ff6868b459d41c0bc20cb27fb67bc1f" label="0.21" source="140282356141888" target="140282356141504">
      <mxCell style="endArrow=classic;html=1;rounded=0;" edge="1" parent="1" source="140282356141888" target="140282356141504">
          <mxGeometry relative="1" as="geometry" />
      </mxCell>
    </object><object id="b2805115c93837f9e5ee42859d163feb" label="0.51" source="140282356141888" target="140282356166960">
      <mxCell style="endArrow=classic;html=1;rounded=0;" edge="1" parent="1" source="140282356141888" target="140282356166960">
          <mxGeometry relative="1" as="geometry" />
      </mxCell>
    </object><object id="9358b596015fe6cbf89d22c037dccc60" label="0.21" source="140282356141984" target="140282356167680">
      <mxCell style="endArrow=classic;html=1;rounded=0;" edge="1" parent="1" source="140282356141984" target="140282356167680">
          <mxGeometry relative="1" as="geometry" />
      </mxCell>
    </object><object id="3dc713ded2cad4d06f34ff1e9dba834e" label="0.21" source="140282356141984" target="140282356167632">
      <mxCell style="endArrow=classic;html=1;rounded=0;" edge="1" parent="1" source="140282356141984" target="140282356167632">
          <mxGeometry relative="1" as="geometry" />
      </mxCell>
    </object><object id="61648a26e3f6f8dfadd970a228f92bb2" label="0.58" source="140282356141984" target="140282356167776">
      <mxCell style="endArrow=classic;html=1;rounded=0;" edge="1" parent="1" source="140282356141984" target="140282356167776">
          <mxGeometry relative="1" as="geometry" />
      </mxCell>
    </object><object id="8dd179e12c33df3761fb5b21ba204191" label="0.18" source="140282356169504" target="140282356169168">
      <mxCell style="endArrow=classic;html=1;rounded=0;" edge="1" parent="1" source="140282356169504" target="140282356169168">
          <mxGeometry relative="1" as="geometry" />
      </mxCell>
    </object><object id="86c6b60c3f441234ce65d07db8ed6a92" label="0.2" source="140282356169504" target="140282356169120">
      <mxCell style="endArrow=classic;html=1;rounded=0;" edge="1" parent="1" source="140282356169504" target="140282356169120">
          <mxGeometry relative="1" as="geometry" />
      </mxCell>
    </object><object id="4d5b8ba759345019389c2d601ebdd70e" label="0.61" source="140282356169504" target="140282356169264">
      <mxCell style="endArrow=classic;html=1;rounded=0;" edge="1" parent="1" source="140282356169504" target="140282356169264">
          <mxGeometry relative="1" as="geometry" />
      </mxCell>
    </object><object id="de2a58c6753288ddb8aba79c8aaa640c" label="0.2" source="140282356140208" target="140282356141792">
      <mxCell style="endArrow=classic;html=1;rounded=0;" edge="1" parent="1" source="140282356140208" target="140282356141792">
          <mxGeometry relative="1" as="geometry" />
      </mxCell>
    </object><object id="713d637ffae83212cd323805b1749b4a" label="0.2" source="140282356140208" target="140282356141456">
      <mxCell style="endArrow=classic;html=1;rounded=0;" edge="1" parent="1" source="140282356140208" target="140282356141456">
          <mxGeometry relative="1" as="geometry" />
      </mxCell>
    </object><object id="32d6c95f3598b07d9dea23b54060e182" label="0.6" source="140282356140208" target="140282356141120">
      <mxCell style="endArrow=classic;html=1;rounded=0;" edge="1" parent="1" source="140282356140208" target="140282356141120">
          <mxGeometry relative="1" as="geometry" />
      </mxCell>
    </object></root>
      </mxGraphModel>
    </diagram></mxfile>